<svg width="308" height="170" viewBox="0 0 308 170" fill="none" xmlns="http://www.w3.org/2000/svg">
<path fill-rule="evenodd" clip-rule="evenodd" d="M227.38 67.3201C227.046 67.3201 226.776 67.5957 226.776 67.9358C226.776 68.2637 227.027 68.5317 227.345 68.5504L227.38 68.5515H249.331C264.326 68.5515 276.518 80.8131 276.761 96.0224L276.764 96.4842V169.384C276.764 169.724 277.035 170 277.369 170C277.691 170 277.954 169.744 277.973 169.42L277.974 169.384V96.4842C277.974 80.543 265.401 67.5816 249.804 67.324L249.331 67.3201H227.38Z" fill="var(--color-typo-primary)"/>
<path fill-rule="evenodd" clip-rule="evenodd" d="M196.01 105.023C195.587 104.88 195.131 105.112 194.989 105.542L194.868 105.918L194.676 106.524C194.635 106.654 194.593 106.788 194.55 106.928C194.222 107.989 193.894 109.099 193.587 110.204C193.449 110.703 193.317 111.191 193.195 111.665L193.122 111.947C192.641 113.838 192.322 115.405 192.21 116.558C192.167 117.009 192.49 117.411 192.933 117.455C193.377 117.5 193.771 117.17 193.815 116.719C193.914 115.7 194.204 114.257 194.645 112.51L194.683 112.359C194.823 111.81 194.976 111.238 195.139 110.65C195.403 109.698 195.684 108.741 195.967 107.816L196.088 107.421C196.159 107.192 196.227 106.976 196.291 106.774L196.519 106.062C196.66 105.632 196.432 105.167 196.01 105.023Z" fill="var(--color-typo-primary)"/>
<path fill-rule="evenodd" clip-rule="evenodd" d="M166.258 102.335C165.827 102.361 165.495 102.727 165.499 103.162L165.519 103.564C165.531 103.829 165.543 104.132 165.555 104.47L165.559 104.598C165.685 108.385 165.634 112.661 165.28 116.855C165.242 117.307 165.571 117.705 166.015 117.744C166.458 117.782 166.849 117.448 166.887 116.996C167.236 112.857 167.295 108.652 167.182 104.893L167.162 104.284C167.155 104.074 167.147 103.878 167.139 103.697L167.11 103.106C167.085 102.667 166.725 102.329 166.298 102.333L166.258 102.335Z" fill="var(--color-typo-primary)"/>
<path fill-rule="evenodd" clip-rule="evenodd" d="M144.192 79.5427C143.953 79.3051 143.571 79.3097 143.337 79.5529C143.202 79.6935 143.113 79.8733 143.027 80.1206L142.997 80.2115C142.937 80.4003 142.876 80.6323 142.806 80.9385L142.72 81.329C142.641 81.6966 142.482 82.4557 142.445 82.627C142.141 84.0397 141.864 85.1231 141.504 86.1926C140.18 90.1222 138.185 92.2864 135.092 92.2358C134.758 92.2304 134.483 92.5016 134.478 92.8416C134.472 93.1816 134.739 93.4616 135.073 93.4671C138.814 93.5282 141.173 90.9685 142.648 86.5922C143.01 85.5162 143.29 84.4388 143.587 83.0703L143.932 81.4511L143.981 81.2304C144.055 80.9086 144.114 80.6855 144.168 80.5296C144.184 80.4819 144.199 80.4433 144.212 80.4145L144.222 80.3949C144.225 80.3879 144.222 80.3932 144.202 80.4134C144.436 80.1701 144.431 79.7803 144.192 79.5427Z" fill="var(--color-typo-primary)"/>
<path fill-rule="evenodd" clip-rule="evenodd" d="M225.243 83.7184C228.549 85.1961 233.306 88.09 237.136 94.0624C231.734 91.8048 213.169 108.716 200.007 104.878C206.115 104.222 219.237 94.4113 225.243 83.7184Z" fill="var(--color-typo-primary)"/>
<path fill-rule="evenodd" clip-rule="evenodd" d="M214.78 56.1737C214.478 56.0277 214.117 56.1583 213.974 56.4654C213.831 56.7726 213.959 57.1399 214.26 57.2859C221.679 60.8769 225.937 65.2822 227.348 70.3012C228.584 74.6952 227.618 79.5326 224.761 84.5164C224.547 84.891 224.77 85.3682 225.191 85.4351C226.877 85.703 229.334 87.1721 232.642 90.2793L232.907 90.53C237.255 94.6737 242.633 101.23 249.14 110.591C259.839 125.966 264.444 140.265 261.829 150.707C259.009 161.968 247.964 168.411 228.76 168.748C228.427 168.754 228.16 169.034 228.166 169.374C228.172 169.714 228.447 169.985 228.781 169.979C248.474 169.633 260.025 162.896 263.001 151.011C265.722 140.147 261.011 125.52 250.127 109.879L249.727 109.306C243.288 100.091 237.947 93.6175 233.596 89.5008L233.462 89.3743C230.503 86.5949 228.138 85.0323 226.287 84.4395L226.208 84.4144L226.243 84.35C228.884 79.4225 229.762 74.5818 228.55 70.105L228.511 69.9623C226.993 64.5667 222.488 59.905 214.78 56.1737Z" fill="var(--color-typo-primary)"/>
<path fill-rule="evenodd" clip-rule="evenodd" d="M128.439 34.587C128.148 34.3364 127.708 34.4195 127.523 34.7509L127.502 34.7918L127.382 35.0342C127.287 35.2262 127.171 35.4563 127.034 35.7257L126.77 36.2403C126.356 37.0439 125.855 37.9988 125.262 39.1088C125.17 39.2762 125.083 39.3246 124.699 39.3995L124.649 39.409C123.847 39.5607 123.482 39.6799 122.947 40.0752C122.239 40.5974 121.605 41.4682 121.007 42.8059L120.991 42.8439L120.978 42.883L108.34 85.4696L108.331 85.5046L108.216 85.9971C106.778 92.1956 106.031 96.863 105.94 101.144L105.936 101.313C105.84 106.785 106.89 111.271 109.336 114.882C114.959 123.183 127.834 126.554 150.025 124.499L150.328 124.47L150.348 124.482C150.426 124.527 150.514 124.554 150.608 124.56L150.643 124.561C150.965 124.561 151.229 124.304 151.247 123.981L151.248 123.945V123.822C151.248 123.459 150.941 123.174 150.586 123.209C128.372 125.358 115.7 122.108 110.331 114.183C108.045 110.808 107.054 106.569 107.145 101.335C107.218 97.1681 107.936 92.6003 109.338 86.5182L109.503 85.808L122.124 43.2805L122.155 43.2122C122.641 42.1502 123.121 41.4865 123.609 41.1081L123.656 41.0724C123.979 40.8345 124.198 40.7526 124.73 40.6468L124.87 40.6198C125.619 40.4782 126.002 40.2874 126.321 39.7022L126.79 38.8212C127.238 37.9754 127.625 37.2344 127.953 36.5945L128.197 36.1165L128.254 36.0046L128.291 36.0325C130.077 37.3517 132.352 38.2006 135.004 38.651L135.167 38.6781C138.094 39.1546 141.206 39.1234 144.148 38.7857C144.411 38.7556 144.659 38.7242 144.892 38.6923L145.227 38.6446L145.244 38.9737C145.26 39.2838 145.275 39.636 145.29 40.0325L145.321 40.9241L145.348 41.8323C145.353 42.0227 145.358 42.2183 145.363 42.4193C145.396 43.8037 145.838 44.5778 146.942 45.6568L147.243 45.9452C148.473 47.1199 148.866 47.8882 148.719 49.6017L148.714 49.6664L143.176 79.8702C143.099 80.2904 143.454 80.6567 143.862 80.5917L143.896 80.5853L159.296 77.24C159.535 77.1879 159.72 76.9941 159.765 76.7489C160.347 73.5178 161.279 70.2714 162.599 67.2689C164.241 63.5334 166.392 60.3862 169.098 58.0177C169.351 57.796 169.38 57.4073 169.162 57.1494C168.945 56.8916 168.563 56.8622 168.31 57.0838C165.457 59.5807 163.205 62.8752 161.495 66.7658C160.213 69.6829 159.288 72.8125 158.684 75.9403L158.65 76.1212L144.531 79.1883L149.91 49.8513L149.915 49.8108C150.03 48.5919 149.873 47.6162 149.462 46.7893C149.159 46.1792 148.808 45.7579 148.148 45.1214L147.91 44.8947C146.939 43.968 146.611 43.4484 146.574 42.4576L146.552 41.6088C146.546 41.4207 146.541 41.2379 146.536 41.0602L146.509 40.2541C146.484 39.5745 146.459 39.0115 146.433 38.5554L146.408 38.1489L146.388 37.8734C146.356 37.5247 146.047 37.2756 145.71 37.3192L145.448 37.3643C145.384 37.3748 145.315 37.386 145.24 37.3977C144.88 37.4536 144.469 37.5097 144.013 37.562C141.17 37.8883 138.161 37.9185 135.358 37.4621C132.509 36.9984 130.15 36.063 128.439 34.587Z" fill="var(--color-typo-primary)"/>
<path fill-rule="evenodd" clip-rule="evenodd" d="M148.657 151.077C148.335 151.072 148.068 151.324 148.045 151.647L148.043 151.683L147.781 169.231C147.776 169.571 148.043 169.851 148.376 169.856C148.698 169.861 148.966 169.609 148.989 169.286L148.99 169.25L149.252 151.702C149.257 151.362 148.991 151.082 148.657 151.077Z" fill="var(--color-typo-primary)"/>
<path fill-rule="evenodd" clip-rule="evenodd" d="M151.994 78.1976C154.433 77.1714 157.658 76.7815 159.795 76.4326C159.331 78.9775 159.21 81.194 159.27 82.6923C159.734 93.5083 163.886 97.7156 164.874 101.697C152.095 96.9152 151.107 84.2316 151.994 78.1976Z" fill="var(--color-typo-primary)"/>
<path fill-rule="evenodd" clip-rule="evenodd" d="M171.122 141.39C171.384 143.668 171.908 144.633 177.149 147.383C178.5 148.081 181.322 149.599 185.091 151.529C184.305 161.401 183.861 168.666 183.861 168.666L168.119 168.892C168.119 168.892 168.562 152.391 168.885 135.623C169.812 137.449 170.961 140.015 171.122 141.39Z" fill="var(--color-typo-link-hover)"/>
<path fill-rule="evenodd" clip-rule="evenodd" d="M169.288 103.236C169.087 94.3908 172.413 85.7093 175.638 79.9216C176.162 87.9874 177.835 97.3462 179.649 100.404C188.115 94.4318 194.464 91.0044 199.544 88.2747C202.749 83.0207 205.45 78.3207 206.619 74.9138C206.598 74.4007 206.578 73.8671 206.578 73.354C206.78 73.3745 206.961 73.3951 207.123 73.4156C205.712 78.1565 202.668 84.8883 196.359 93.9187C195.149 95.3554 193.96 96.9767 192.831 98.7623V98.7623V98.7623C191.32 101.164 189.949 107.957 188.76 116.413C181.745 115.428 176.323 115.222 175.335 116.741L169.248 117.931C169.47 106.11 169.389 108.08 169.288 103.236Z" fill="var(--color-typo-link-hover)"/>
<path fill-rule="evenodd" clip-rule="evenodd" d="M161.306 132.577C160.979 132.509 160.66 132.724 160.593 133.057C160.528 133.378 160.722 133.692 161.029 133.775L161.064 133.784L170.416 135.733C170.744 135.802 171.063 135.587 171.13 135.254C171.195 134.933 171.001 134.619 170.694 134.535L170.659 134.527L161.306 132.577Z" fill="var(--color-typo-primary)"/>
<path fill-rule="evenodd" clip-rule="evenodd" d="M168.4 117.083C162.578 115.118 157.615 116.334 153.585 119.931C150.738 122.473 148.577 126.063 147.513 129.138L147.446 129.336C146.455 132.298 145.18 138.042 145.026 140.106L144.896 141.885C144.861 142.364 144.83 142.801 144.801 143.244L144.764 143.807C144.681 145.107 144.618 146.313 144.576 147.462L144.563 147.831C144.492 150.025 144.51 151.842 144.637 153.217L144.656 153.404C144.85 155.31 145.243 156.349 146.192 156.412C147.21 156.476 147.984 155.199 148.905 152.738C149.514 151.112 150.125 149.056 150.644 147.025C150.728 146.696 150.534 146.359 150.211 146.274C149.888 146.188 149.557 146.386 149.473 146.715C148.965 148.706 148.366 150.723 147.775 152.3L147.685 152.536C147.358 153.388 147.044 154.07 146.755 154.547C146.61 154.786 146.476 154.966 146.36 155.08L146.321 155.117L146.291 155.142L146.276 155.119C146.243 155.062 146.207 154.986 146.171 154.89L146.153 154.841C146.018 154.454 145.912 153.865 145.841 153.101C145.713 151.715 145.701 149.818 145.785 147.507L145.804 147.016C145.844 146.027 145.9 144.992 145.971 143.886L146.008 143.327C146.03 142.997 146.052 142.67 146.077 142.325L146.237 140.128C146.411 138.07 147.699 132.314 148.654 129.547C149.654 126.658 151.708 123.246 154.383 120.857C158.139 117.504 162.714 116.408 168.186 118.309L168.212 118.317L168.238 118.324L177.409 120.602C177.734 120.683 178.061 120.481 178.14 120.15C178.216 119.832 178.034 119.511 177.73 119.416L177.696 119.406L168.55 117.134L168.4 117.083Z" fill="var(--color-typo-primary)"/>
<path fill-rule="evenodd" clip-rule="evenodd" d="M161.283 130.699C161.25 130.36 160.955 130.113 160.622 130.146C160.29 130.179 160.047 130.48 160.079 130.819L160.091 130.936C160.108 131.095 160.131 131.269 160.16 131.473L160.232 131.955C160.278 132.249 160.363 132.79 160.387 132.945L160.432 133.243C160.613 134.461 160.703 135.377 160.71 136.291C160.721 137.744 160.498 138.941 159.99 139.883C159.829 140.181 159.936 140.555 160.229 140.719C160.522 140.882 160.889 140.774 161.05 140.476C161.672 139.323 161.932 137.927 161.919 136.281C161.911 135.259 161.809 134.256 161.606 132.911L161.404 131.614L161.358 131.302C161.323 131.063 161.299 130.869 161.283 130.699Z" fill="var(--color-typo-primary)"/>
<path fill-rule="evenodd" clip-rule="evenodd" d="M148.315 139.383C147.995 139.421 147.763 139.707 147.782 140.03L147.787 140.08L147.799 140.177C147.81 140.264 147.823 140.366 147.839 140.479L147.874 140.728C147.912 140.984 147.955 141.259 148.005 141.549C148.194 142.656 148.432 143.764 148.724 144.802L148.789 145.028C149.583 147.749 150.604 149.491 152.061 149.83C153.671 150.205 154.792 149.739 155.39 148.72C155.544 148.458 155.649 148.181 155.716 147.905C155.756 147.736 155.776 147.599 155.782 147.507C155.804 147.167 155.553 146.874 155.219 146.851C154.898 146.829 154.618 147.066 154.579 147.387L154.575 147.423C154.573 147.449 154.564 147.517 154.541 147.612C154.502 147.776 154.44 147.939 154.352 148.088C154.027 148.642 153.437 148.887 152.33 148.63C151.442 148.423 150.568 146.883 149.887 144.462C149.608 143.471 149.379 142.405 149.197 141.338L149.151 141.063C149.114 140.838 149.082 140.625 149.053 140.425L149.019 140.183L148.986 139.923C148.947 139.585 148.647 139.343 148.315 139.383Z" fill="var(--color-typo-primary)"/>
<path fill-rule="evenodd" clip-rule="evenodd" d="M151.652 139.083C151.324 139.151 151.113 139.476 151.18 139.809L151.2 139.907C151.216 139.983 151.236 140.071 151.258 140.17C151.322 140.451 151.398 140.764 151.487 141.1C151.74 142.062 152.042 143.024 152.393 143.926L152.479 144.143C153.444 146.543 154.587 148.068 156.054 148.299C157.642 148.55 158.718 148.042 159.265 147.031C159.418 146.746 159.515 146.447 159.569 146.148C159.602 145.966 159.613 145.819 159.613 145.72C159.613 145.38 159.343 145.105 159.009 145.105C158.687 145.105 158.423 145.361 158.405 145.684L158.403 145.746C158.401 145.783 158.394 145.846 158.38 145.926C158.348 146.102 158.291 146.278 158.205 146.437C157.909 146.984 157.335 147.255 156.239 147.082C155.312 146.936 154.348 145.607 153.517 143.472C153.185 142.619 152.897 141.7 152.655 140.781L152.593 140.544C152.544 140.35 152.5 140.166 152.46 139.994L152.412 139.786L152.365 139.564C152.298 139.23 151.979 139.015 151.652 139.083Z" fill="var(--color-typo-primary)"/>
<path fill-rule="evenodd" clip-rule="evenodd" d="M163.974 138.811C162.71 137.725 161.067 138.18 159.443 140.817C159.266 141.105 159.352 141.485 159.635 141.665C159.917 141.846 160.291 141.759 160.468 141.471C161.196 140.289 161.841 139.695 162.372 139.548C162.687 139.46 162.951 139.543 163.194 139.752C163.24 139.791 163.28 139.83 163.313 139.866L163.33 139.884L163.328 139.908C163.326 139.946 163.321 139.988 163.315 140.036L163.307 140.086C163.268 140.334 163.185 140.629 163.045 140.97C162.648 141.942 161.879 143.099 160.644 144.437C160.006 145.128 159.552 145.17 159.034 144.741C158.505 144.303 157.975 143.407 157.494 142.202C157.223 141.525 156.984 140.796 156.781 140.067L156.722 139.852C156.684 139.712 156.65 139.579 156.619 139.454L156.571 139.257L156.535 139.101C156.462 138.769 156.139 138.56 155.813 138.634C155.499 138.705 155.297 139.013 155.348 139.333L155.357 139.379L155.395 139.546C155.404 139.581 155.413 139.619 155.422 139.659L155.472 139.857C155.515 140.028 155.564 140.211 155.617 140.403C155.832 141.173 156.084 141.944 156.373 142.667C156.926 144.047 157.545 145.095 158.27 145.696C159.291 146.542 160.462 146.432 161.525 145.28C162.855 143.84 163.705 142.561 164.162 141.444C164.466 140.701 164.565 140.114 164.537 139.694L164.533 139.647C164.53 139.609 164.526 139.578 164.521 139.553C164.507 139.477 164.479 139.404 164.439 139.339C164.349 139.193 164.196 139.001 163.974 138.811Z" fill="var(--color-typo-primary)"/>
<path fill-rule="evenodd" clip-rule="evenodd" d="M171.002 139.953C178.138 134.063 180.536 119.245 177.533 116.002C177.412 114.976 175.094 116.7 173.703 116.864C170.337 117.254 168.886 117.357 168.886 117.357C170.256 121.626 168.724 126.798 167.172 130.471C166.265 132.667 165.318 134.391 164.854 135.192C165.116 135.336 166.205 135.869 168.785 137.018C170.256 137.696 170.559 138.825 171.002 139.953Z" fill="var(--color-typo-primary)"/>
<path fill-rule="evenodd" clip-rule="evenodd" d="M227.571 117.101C225.409 116.367 222.539 115.936 220.016 116.169C216.519 116.492 213.887 118.019 212.615 120.99C212.482 121.302 212.622 121.664 212.928 121.8C213.234 121.936 213.59 121.793 213.724 121.482C214.796 118.977 217.03 117.681 220.125 117.395C222.468 117.179 225.175 117.586 227.189 118.269C227.506 118.377 227.848 118.202 227.954 117.88C228.059 117.557 227.888 117.209 227.571 117.101Z" fill="var(--color-typo-primary)"/>
<path fill-rule="evenodd" clip-rule="evenodd" d="M201.395 117.999C185.785 114.858 176.409 113.966 174.831 116.402C174.819 116.421 174.807 116.44 174.797 116.46L174.783 116.49L167.366 133.402C167.294 133.565 167.296 133.752 167.37 133.914L167.393 133.958L167.525 134.206L167.622 134.39C167.705 134.548 167.794 134.72 167.888 134.904C168.265 135.638 168.641 136.404 168.992 137.163C169.17 137.547 169.336 137.92 169.49 138.278C170.073 139.639 170.443 140.733 170.535 141.425L170.542 141.482C170.853 144.186 171.831 145.272 176.597 147.795L177.072 148.046C178.14 148.621 182.737 151.139 184.694 152.187C189.278 154.642 193.677 156.886 198.164 159.011C203.331 161.459 208.284 163.589 212.984 165.341C219.084 167.615 224.604 169.195 229.443 169.972C229.772 170.025 230.082 169.796 230.134 169.46C230.186 169.124 229.961 168.809 229.631 168.756C224.88 167.992 219.432 166.433 213.4 164.185C208.735 162.446 203.812 160.329 198.674 157.895C194.401 155.871 190.206 153.738 185.852 151.415L184.775 150.838C182.462 149.591 177.96 147.125 177.447 146.856L177.034 146.639C172.791 144.388 172.026 143.567 171.76 141.473L171.743 141.34C171.647 140.496 171.243 139.29 170.599 137.786C170.44 137.416 170.269 137.032 170.087 136.638C169.728 135.863 169.344 135.082 168.96 134.334L168.793 134.01L168.592 133.626L175.864 117.046L175.875 117.032C176.477 116.271 179.36 116.035 183.961 116.452L184.246 116.479C188.611 116.894 194.362 117.839 201.16 119.207C203.49 119.676 205.912 120.188 208.407 120.738C212.615 121.664 216.838 122.654 220.893 123.647L222.147 123.955C223.372 124.258 224.503 124.541 225.525 124.801L226.21 124.976L227.23 125.239C227.553 125.324 227.883 125.125 227.966 124.796C228.046 124.478 227.868 124.155 227.565 124.056L227.518 124.043L226.021 123.658L224.758 123.338C223.955 123.136 223.095 122.922 222.185 122.697L221.936 122.636C217.641 121.578 213.144 120.521 208.663 119.534C206.161 118.983 203.731 118.469 201.395 117.999Z" fill="var(--color-typo-primary)"/>
<path fill-rule="evenodd" clip-rule="evenodd" d="M206.252 62.8666L206.216 62.8667C205.882 62.8776 205.621 63.1619 205.631 63.5018L205.976 74.36L205.99 74.8177L205.965 74.889C204.949 77.7628 202.895 81.5633 199.237 87.5769L199.096 87.808L198.133 88.3274C191.199 92.0781 186.575 94.8295 180.488 99.0562L179.842 99.5067L179.796 99.4071C178.277 96.0898 176.792 88.0413 176.254 80.3658L176.221 79.8809C176.199 79.5416 175.911 79.2847 175.578 79.3072C175.244 79.3296 174.992 79.6229 175.014 79.9622C175.573 88.56 177.312 97.6893 179.111 100.723C179.291 101.026 179.686 101.112 179.973 100.911L180.451 100.575C187.18 95.863 191.999 93.0142 199.806 88.8192C199.901 88.7682 199.98 88.6924 200.037 88.5995L200.613 87.6524C204.176 81.7679 206.169 78.0319 207.169 75.1169C207.194 75.0454 207.205 74.97 207.203 74.8943L206.84 63.4624C206.83 63.1346 206.57 62.8749 206.252 62.8666Z" fill="var(--color-typo-primary)"/>
<path fill-rule="evenodd" clip-rule="evenodd" d="M208.872 47.8252C208.54 47.7936 208.245 48.0425 208.214 48.381C208.183 48.7196 208.427 49.0197 208.76 49.0513C210.061 49.175 211.413 49.5514 212.489 50.2989C214.028 51.3684 214.7 53.0183 214.209 55.5018C213.822 57.4927 212.824 58.5719 211.307 58.9739C210.091 59.296 208.601 59.1677 207.022 58.7224C206.7 58.6317 206.367 58.8238 206.278 59.1515C206.189 59.4792 206.377 59.8184 206.699 59.9092C208.465 60.4071 210.152 60.5523 211.611 60.1657C213.578 59.6445 214.918 58.1951 215.395 55.7431C215.983 52.7732 215.109 50.6282 213.17 49.2816C211.892 48.3933 210.359 47.9665 208.872 47.8252Z" fill="var(--color-typo-primary)"/>
<path fill-rule="evenodd" clip-rule="evenodd" d="M168.903 36.3755C168.572 36.3316 168.268 36.5693 168.225 36.9065C167.268 44.3855 167.463 53.0137 168.487 61.0776C168.53 61.4149 168.833 61.6529 169.164 61.6093C169.495 61.5658 169.729 61.257 169.686 60.9198C168.675 52.9535 168.483 44.4282 169.424 37.0655C169.467 36.7283 169.234 36.4194 168.903 36.3755Z" fill="var(--color-typo-primary)"/>
<path fill-rule="evenodd" clip-rule="evenodd" d="M169.687 60.898C169.643 60.5608 169.339 60.3234 169.008 60.3677C168.677 60.412 168.444 60.7213 168.488 61.0584L168.572 61.7007C168.904 64.1763 169.276 66.3847 169.645 68.1081C169.716 68.4404 170.039 68.6509 170.365 68.5783C170.691 68.5058 170.898 68.1776 170.827 67.8454L170.765 67.551C170.392 65.7565 170.017 63.4592 169.687 60.898Z" fill="var(--color-typo-primary)"/>
<path fill-rule="evenodd" clip-rule="evenodd" d="M204.405 49.3019L208.839 49.6302C209.194 49.6565 209.447 49.9851 209.393 50.3374L209.374 50.4322L208.878 52.7755L208.702 53.6021C208.253 55.7008 207.797 57.7996 207.356 59.7936L207.093 60.9756L206.771 62.4096C205.986 65.8782 205.364 68.456 204.954 69.8769L204.9 70.0635C203.475 74.8897 202.238 76.6471 197.276 80.2779C194.437 82.3555 190.134 83.7542 185.982 83.8849C181.234 84.0343 177.122 82.5659 174.51 79.4156C172.859 77.4169 171.558 74.7747 170.56 71.6446C169.756 69.122 169.191 66.4255 168.823 63.7301C168.694 62.7872 168.599 61.9114 168.533 61.1245L168.516 60.9232C168.508 60.8254 168.501 60.7321 168.495 60.6433L168.474 60.3363L168.463 60.1241C168.45 59.8414 168.628 59.5863 168.894 59.5056C170.086 59.1444 172.049 58.8907 174.512 58.7175C175.253 58.6654 175.998 58.6238 176.722 58.5916L177.082 58.5762C177.339 58.5657 177.58 58.557 177.8 58.5498L178.285 58.536L178.307 58.536C183.491 58.6151 188.389 59.1954 192.868 60.1135C194.485 60.4452 195.94 60.7997 197.214 61.1556L197.52 61.2419C197.766 61.3124 197.995 61.3801 198.207 61.4445L198.419 61.5096L198.432 61.4629C199.513 57.6925 202.631 50.8274 203.93 49.484C204.054 49.3554 204.228 49.2888 204.405 49.3019ZM204.618 50.5522L204.596 50.5796C203.263 52.3277 200.195 59.2487 199.425 62.4386C199.344 62.778 199.002 62.9776 198.676 62.885L198.378 62.7862L198.246 62.7441C197.914 62.6384 197.521 62.5203 197.071 62.3929L196.715 62.2933C195.51 61.9615 194.143 61.6311 192.629 61.3207L192.328 61.2596C188.101 60.4113 183.498 59.8691 178.637 59.7733L178.304 59.7673L177.946 59.7773C177.7 59.7849 177.426 59.7946 177.13 59.8066C176.305 59.8402 175.447 59.8861 174.595 59.946L174.153 59.9784C172.352 60.1162 170.851 60.3016 169.814 60.5361L169.702 60.5622L169.722 60.8243C169.727 60.8873 169.732 60.9523 169.738 61.0191L169.769 61.3789C169.832 62.0498 169.914 62.7815 170.021 63.5605C170.38 66.1895 170.93 68.8175 171.71 71.2643C172.664 74.2556 173.898 76.7615 175.435 78.6221C177.781 81.4516 181.537 82.7928 185.944 82.6541C189.863 82.5307 193.933 81.2078 196.57 79.2779L196.851 79.0718C201.268 75.8105 202.376 74.2474 203.661 69.9787L203.777 69.5884C204.2 68.1316 204.878 65.3128 205.736 61.4944L205.974 60.4335L206.176 59.5226C206.515 57.9913 206.863 56.3977 207.209 54.7898L207.739 52.3148L208.059 50.8071L204.618 50.5522Z" fill="var(--color-typo-primary)"/>
<path fill-rule="evenodd" clip-rule="evenodd" d="M181.166 69.231C180.435 69.137 179.678 69.1081 178.959 69.1847C177.956 69.2917 177.134 69.5942 176.564 70.1652C176.326 70.4038 176.323 70.7937 176.558 71.0359C176.792 71.2782 177.175 71.2811 177.413 71.0425C177.752 70.7024 178.329 70.49 179.085 70.4094C179.699 70.344 180.368 70.3696 181.014 70.4527C181.123 70.4667 181.223 70.4814 181.314 70.4961L181.478 70.5247C181.489 70.5269 181.498 70.5287 181.505 70.53C181.832 70.5975 182.151 70.382 182.217 70.0487C182.284 69.7154 182.072 69.3906 181.745 69.3231L181.614 69.2983C181.499 69.278 181.348 69.2544 181.166 69.231Z" fill="var(--color-typo-primary)"/>
<path fill-rule="evenodd" clip-rule="evenodd" d="M177.5 53.7373C177.18 53.7004 176.89 53.925 176.836 54.244L176.831 54.2798L175.621 65.1574C175.575 65.5743 175.942 65.9115 176.339 65.8308L176.373 65.8228L180.122 64.8377C180.446 64.7527 180.64 64.4169 180.557 64.0877C180.476 63.7702 180.167 63.5747 179.855 63.6373L179.82 63.6453L176.922 64.4069L178.032 54.4184C178.069 54.0925 177.848 53.7974 177.535 53.7424L177.5 53.7373Z" fill="var(--color-typo-primary)"/>
<path fill-rule="evenodd" clip-rule="evenodd" d="M173.501 57.3045C172.9 57.3045 172.413 56.5326 172.413 55.5805C172.413 54.6284 172.9 53.8565 173.501 53.8565C174.103 53.8565 174.59 54.6284 174.59 55.5805C174.59 56.5326 174.103 57.3045 173.501 57.3045Z" fill="var(--color-typo-primary)"/>
<path fill-rule="evenodd" clip-rule="evenodd" d="M184.023 57.0992C183.422 57.0992 182.934 56.3274 182.934 55.3752C182.934 54.4231 183.422 53.6512 184.023 53.6512C184.624 53.6512 185.111 54.4231 185.111 55.3752C185.111 56.3274 184.624 57.0992 184.023 57.0992Z" fill="var(--color-typo-primary)"/>
<path fill-rule="evenodd" clip-rule="evenodd" d="M188.118 44.9038C186.968 44.0462 185.564 43.6203 183.933 43.8682C183.603 43.9185 183.375 44.2318 183.425 44.5681C183.474 44.9044 183.782 45.1364 184.112 45.0861C185.405 44.8896 186.496 45.2206 187.404 45.8973C187.659 46.088 187.88 46.2922 188.063 46.495L188.122 46.5615C188.176 46.624 188.217 46.6743 188.243 46.709L188.264 46.7384C188.455 47.0172 188.832 47.0854 189.106 46.8907C189.38 46.696 189.446 46.3122 189.255 46.0334C189.198 45.9501 189.097 45.8208 188.953 45.661C188.719 45.4019 188.441 45.1442 188.118 44.9038Z" fill="var(--color-typo-primary)"/>
<path fill-rule="evenodd" clip-rule="evenodd" d="M173.776 43.6444C173.154 43.5454 172.494 43.5421 171.858 43.7023C170.784 43.9725 169.977 44.6727 169.618 45.8552C169.519 46.1801 169.698 46.5249 170.017 46.6253C170.336 46.7256 170.675 46.5436 170.773 46.2187C170.999 45.4737 171.465 45.0695 172.148 44.8978C172.605 44.7827 173.113 44.7852 173.589 44.861L173.664 44.8737C173.722 44.884 173.768 44.8935 173.8 44.901L173.833 44.9089C174.156 44.9945 174.486 44.797 174.57 44.4679C174.654 44.1388 174.46 43.8027 174.137 43.7171C174.062 43.6971 173.938 43.6703 173.776 43.6444Z" fill="var(--color-typo-primary)"/>
<path fill-rule="evenodd" clip-rule="evenodd" d="M161.871 35.221C162.133 34.4206 161.83 33.456 161.286 32.4914L161.427 32.3272L162.113 34.277C162.113 34.277 164.249 35.221 164.955 32.4298C165.176 31.5678 164.673 30.5416 163.886 29.5155L163.907 29.4949C166.87 30.1927 172.695 31.3421 173.219 30.1517C173.965 28.4688 163.483 23.9946 160.278 22.5785C158.646 21.8396 152.982 20.2593 149.918 19.8078C148.668 19.6231 146.411 19.4589 143.831 19.7257C143.609 17.8785 143.911 16.0109 144.879 14.2048C145.866 12.3371 147.942 9.58698 149.777 8.58132C167.978 -1.24952 176.847 15.3541 176.847 15.3541C176.847 15.3541 179.407 8.21189 187.712 7.96561C191.098 7.86299 194.404 9.21755 196.802 11.6599C203.595 18.5969 199.06 26.4369 199.06 26.4369C199.06 26.4369 202.225 24.795 206.498 26.8884C211.597 29.3923 214.157 35.2826 212.827 40.8856C211.416 46.8374 208.816 52.502 208.816 52.502C192.247 55.1085 188.014 38.5459 190.453 36.4114C186.785 39.1821 180.173 41.0292 168.986 39.8799C166.426 39.6131 163.282 38.5869 160.077 37.0271C160.722 36.9656 161.427 36.5551 161.871 35.221Z" fill="var(--color-typo-primary)"/>
<path fill-rule="evenodd" clip-rule="evenodd" d="M146.496 33.0432C146.184 32.964 145.868 33.1479 145.773 33.457L145.763 33.4919L143.276 43.6628L128.925 39.3306C128.617 39.2374 128.293 39.407 128.185 39.7115L128.174 39.7459C128.082 40.0603 128.249 40.3901 128.548 40.5L128.582 40.5112L143.538 45.0265C143.857 45.1227 144.189 44.9388 144.287 44.6196L144.296 44.5849L146.937 33.7895C147.018 33.4595 146.82 33.1254 146.496 33.0432Z" fill="var(--color-typo-primary)"/>
<path fill-rule="evenodd" clip-rule="evenodd" d="M150.006 19.1986C146.784 18.7156 142.462 18.9091 138.757 20.1624C133.424 21.9662 129.861 25.7095 128.89 31.7219L128.867 31.8705L126.738 39.967C126.656 40.2774 126.823 40.5972 127.116 40.7051L127.151 40.7166L141.381 45.006C141.701 45.1025 142.038 44.9165 142.133 44.5904C142.224 44.276 142.057 43.9462 141.758 43.8365L141.724 43.8252L128.059 39.7059L130.043 32.158C130.046 32.1473 130.048 32.1365 130.051 32.1256L130.056 32.0928C130.91 26.4622 134.157 23.0158 139.138 21.331C142.587 20.1645 146.645 19.9662 149.68 20.3951L149.831 20.4171C152.642 20.8313 158.215 22.3408 159.981 23.1179L161.997 24.0062C162.211 24.1014 162.419 24.1939 162.629 24.2877L163.118 24.5072C164.165 24.9788 165.131 25.4263 166.052 25.8689C166.882 26.2679 167.649 26.6513 168.351 27.0187L168.614 27.1577C169.957 27.8704 171.012 28.5054 171.727 29.0447C172.122 29.3425 172.402 29.6031 172.554 29.8097C172.569 29.8294 172.582 29.8479 172.593 29.8652L172.616 29.9019L172.58 29.9164C172.431 29.9724 172.206 30.014 171.916 30.0353C171.332 30.078 170.528 30.0367 169.548 29.9198C167.94 29.728 165.951 29.3443 164.043 28.8951C163.718 28.8184 163.393 29.0249 163.318 29.3562C163.242 29.6875 163.445 30.0182 163.77 30.0948C165.646 30.5364 167.597 30.9158 169.221 31.1201L169.407 31.1429C171.922 31.443 173.36 31.3378 173.77 30.4049C174.319 29.1674 172.652 27.8947 169.015 25.9819L168.904 25.9237C168.19 25.5494 167.41 25.16 166.568 24.7554L166.136 24.5486C165.263 24.1341 164.349 23.7135 163.363 23.2713L162.349 22.8195L160.401 21.9615C158.47 21.1315 152.885 19.6229 150.006 19.1986Z" fill="var(--color-typo-primary)"/>
<path fill-rule="evenodd" clip-rule="evenodd" d="M142.65 31.0527C142.371 30.8664 141.996 30.946 141.813 31.2305C141.63 31.515 141.708 31.8966 141.988 32.0829C142.982 32.7459 145.1 33.813 147.138 34.6457C149.743 35.7098 151.997 36.3279 153.541 36.2881C153.875 36.2794 154.139 35.9969 154.131 35.657C154.122 35.317 153.845 35.0484 153.511 35.057C152.176 35.0914 150.051 34.5085 147.588 33.5028L147.253 33.3641C145.39 32.5826 143.517 31.6308 142.65 31.0527Z" fill="var(--color-typo-primary)"/>
<path fill-rule="evenodd" clip-rule="evenodd" d="M158.328 24.5714C158.14 24.8524 158.211 25.2355 158.487 25.427L158.659 25.5495L158.742 25.6091C158.948 25.7593 159.179 25.9316 159.428 26.1232C160.139 26.6704 160.849 27.2608 161.511 27.8706C162.335 28.6302 163.021 29.365 163.523 30.0478C164.216 30.9922 164.503 31.769 164.37 32.2958C164.16 33.1195 163.825 33.5537 163.41 33.7321C163.124 33.8551 162.799 33.8548 162.49 33.7747C162.46 33.7669 162.432 33.7588 162.407 33.7508L162.349 33.7307C162.042 33.5978 161.687 33.7439 161.556 34.0569C161.426 34.3699 161.569 34.7313 161.877 34.8642C161.946 34.8943 162.053 34.9321 162.191 34.968C162.734 35.1087 163.316 35.1092 163.881 34.8666C164.664 34.5299 165.241 33.7811 165.541 32.6038C165.788 31.6234 165.383 30.525 164.491 29.3102C163.937 28.5555 163.199 27.7663 162.323 26.9578C161.632 26.3214 160.895 25.7086 160.157 25.1409L159.967 24.9957C159.843 24.9013 159.724 24.8121 159.61 24.7282L159.357 24.5438L159.168 24.4093C158.892 24.2178 158.516 24.2904 158.328 24.5714Z" fill="var(--color-typo-primary)"/>
<path fill-rule="evenodd" clip-rule="evenodd" d="M156.585 27.3608C156.382 27.6141 156.41 27.9824 156.642 28.2016L156.677 28.2321L156.791 28.3295L156.872 28.3991C157.035 28.5417 157.218 28.7056 157.415 28.8879C157.978 29.4089 158.541 29.9719 159.065 30.5546C159.744 31.3096 160.305 32.0402 160.705 32.7181C161.279 33.688 161.481 34.479 161.299 35.0223C161.053 35.755 160.726 36.1599 160.349 36.3359C160.042 36.4786 159.696 36.4704 159.36 36.3629L159.298 36.3418C159.251 36.325 159.216 36.3103 159.197 36.301L159.187 36.296C158.891 36.1392 158.525 36.2567 158.371 36.5585C158.217 36.8602 158.333 37.2319 158.629 37.3887C158.71 37.4313 158.835 37.4856 158.997 37.5376C159.593 37.7284 160.234 37.7437 160.852 37.4556C161.552 37.1294 162.097 36.4553 162.443 35.4197C162.767 34.4539 162.481 33.3336 161.742 32.0831C161.294 31.3259 160.686 30.5338 159.957 29.7231C159.406 29.1101 158.817 28.5213 158.228 27.9765L158.055 27.8177C157.942 27.715 157.835 27.6188 157.733 27.5294L157.614 27.4252L157.436 27.2735C157.178 27.0584 156.797 27.0975 156.585 27.3608Z" fill="var(--color-typo-primary)"/>
<path fill-rule="evenodd" clip-rule="evenodd" d="M155.165 30.7275C154.91 30.5084 154.528 30.5416 154.313 30.8016C154.098 31.0616 154.13 31.4501 154.386 31.6692L154.49 31.7607L154.543 31.8081C154.672 31.9239 154.816 32.0568 154.972 32.2045C155.416 32.6268 155.86 33.0818 156.273 33.5506C156.771 34.1152 157.188 34.6605 157.496 35.1667L157.569 35.2885C158.357 36.6289 158.245 37.3281 157.053 37.6653C154.702 38.3302 153.126 38.3601 152.184 38.0399C152.121 38.0188 152.067 37.9975 152.021 37.9768L151.998 37.9663L151.991 37.9472C151.908 37.7125 151.891 37.4781 151.967 37.2735L151.984 37.2301C152.206 36.7311 153.001 36.3316 154.64 36.2044C154.973 36.1785 155.222 35.8827 155.197 35.5436C155.172 35.2046 154.881 34.9507 154.548 34.9765C152.515 35.1344 151.323 35.7337 150.883 36.7216C150.637 37.2724 150.667 37.8392 150.853 38.3654C150.908 38.5191 150.965 38.6379 151.01 38.7157C151.047 38.7795 151.095 38.8359 151.152 38.8823C151.275 38.9832 151.488 39.1017 151.801 39.208C152.992 39.6126 154.808 39.5781 157.376 38.8518C159.565 38.2327 159.756 36.5372 158.524 34.5169C158.173 33.9422 157.715 33.3424 157.173 32.7283C156.734 32.2299 156.266 31.7498 155.797 31.3043L155.637 31.1535C155.585 31.105 155.534 31.0582 155.485 31.0134L155.259 30.8095C155.218 30.7732 155.186 30.7457 155.165 30.7275Z" fill="var(--color-typo-primary)"/>
<path fill-rule="evenodd" clip-rule="evenodd" d="M147.802 45.606C144.939 49.4645 125.569 46.5501 122.384 41.5628C123.916 39.4284 125.125 40.6393 125.811 39.3873C127.423 36.3704 128.068 35.0363 128.068 35.0363C131.434 37.9507 136.716 38.4638 140.646 38.3817C142.984 38.3612 144.919 38.1149 145.826 37.9917C145.847 38.2996 145.927 39.531 146.008 42.3838C146.028 44.0462 146.935 44.7851 147.802 45.606Z" fill="var(--color-typo-primary)"/>
<path fill-rule="evenodd" clip-rule="evenodd" d="M42.0394 112.062H120.409C121.437 112.062 122.324 112.78 122.566 113.806L133.47 160.764H161.871C161.871 160.764 163.443 169.035 154.272 169.035H54.2141C53.1861 169.035 52.2992 168.317 52.0573 167.291L39.8826 114.832C39.5601 113.416 40.6083 112.062 42.0394 112.062Z" fill="var(--color-typo-primary)"/>
<path fill-rule="evenodd" clip-rule="evenodd" d="M254.155 47.9662C253.047 48.4588 251.777 47.8841 251.394 46.7143C251.112 45.8523 250.91 45.3392 250.83 44.9287C250.729 44.3541 251.414 43.1842 252.2 41.7886C252.624 41.0703 252.865 40.4546 252.926 39.9415C253.007 39.4489 252.906 38.8948 252.664 38.3201C252.362 37.6018 251.898 37.1297 251.273 36.9245C250.648 36.6987 250.023 36.7398 249.378 37.0271C248.108 37.5813 247.544 38.6485 247.685 40.2083C247.786 41.255 247.121 42.1991 246.133 42.4864V42.4864C244.823 42.8558 243.513 41.8707 243.472 40.4751C243.432 39.2232 243.654 38.0738 244.138 37.0476C244.944 35.3442 246.274 34.0922 248.129 33.2713C250.023 32.4298 251.837 32.2862 253.611 32.8403C255.365 33.3944 256.615 34.5027 257.34 36.2062C258.247 38.3201 257.925 40.5572 256.393 42.9174C255.728 43.9436 255.385 44.6825 255.325 45.1134C255.304 45.2571 255.325 45.4418 255.345 45.6471C255.526 46.6322 255.042 47.5763 254.155 47.9662V47.9662ZM256.836 53.5692L256.655 53.6513C255.466 54.1849 254.075 53.6102 253.551 52.3993V52.3993C253.027 51.1884 253.591 49.7723 254.78 49.2387L254.962 49.1566C256.151 48.623 257.542 49.1977 258.066 50.4085V50.4085C258.59 51.6194 258.046 53.0356 256.836 53.5692Z" fill="var(--color-typo-link-hover)"/>
<path fill-rule="evenodd" clip-rule="evenodd" d="M234.75 21.6959C233.118 21.6138 231.908 20.1156 232.13 18.4737C232.291 17.2628 232.352 16.5035 232.513 15.9288C232.735 15.1489 234.267 14.1638 236.081 12.9529C237.028 12.3166 237.693 11.7214 238.076 11.1673C238.459 10.5926 238.681 9.89483 238.721 9.01231C238.782 7.94508 238.5 7.08309 237.854 6.42633C237.23 5.76957 236.423 5.42067 235.476 5.3591C233.581 5.25648 232.271 6.20057 231.505 8.19137C231.001 9.5254 229.61 10.2643 228.24 9.99745V9.99745C226.426 9.62802 225.418 7.6167 226.204 5.89271C226.909 4.33292 227.857 3.08097 229.066 2.13688C231.062 0.577083 233.44 -0.141246 236.202 0.0229433C239.003 0.187133 241.321 1.13122 243.136 2.89626C244.95 4.66129 245.796 6.79576 245.655 9.32017C245.494 12.4603 243.76 14.9847 240.475 16.9345C239.044 17.7759 238.177 18.4532 237.854 18.9663C237.754 19.1305 237.653 19.3562 237.572 19.6231C237.23 20.916 236.061 21.7575 234.75 21.6959V21.6959ZM234.67 30.1928L234.408 30.1722C232.634 30.0696 231.263 28.5303 231.364 26.7243V26.7243C231.465 24.9182 232.976 23.5226 234.75 23.6252L235.012 23.6457C236.786 23.7483 238.157 25.2876 238.056 27.0937V27.0937C237.975 28.8998 236.443 30.2954 234.67 30.1928Z" fill="var(--color-typo-link-hover)"/>
<path fill-rule="evenodd" clip-rule="evenodd" d="M1.54435 168.728C1.21038 168.728 0.939646 169.003 0.939646 169.343C0.939646 169.671 1.19139 169.939 1.50882 169.958L1.54435 169.959H306.616C306.95 169.959 307.221 169.683 307.221 169.343C307.221 169.015 306.969 168.747 306.652 168.729L306.616 168.728H1.54435Z" fill="var(--color-typo-primary)"/>
</svg>
