<svg width="100" height="135" viewBox="0 0 100 135" fill="none" xmlns="http://www.w3.org/2000/svg">
<path fill-rule="evenodd" clip-rule="evenodd" d="M83.7159 120.206C83.2934 120.179 82.9294 120.503 82.903 120.928C82.8766 121.354 83.1977 121.72 83.6203 121.747C85.2053 121.847 86.8743 122.037 88.521 122.315L90.6826 122.697L91.6191 122.867C91.856 122.911 92.084 122.953 92.3064 122.995L92.6363 123.058C95.02 123.515 96.7315 123.918 97.7278 124.289C97.96 124.375 98.1428 124.456 98.2701 124.528C98.3011 124.546 98.3272 124.562 98.3481 124.576L98.3786 124.598C98.5282 124.841 98.4825 124.969 98.1431 125.178L98.0992 125.204C97.5503 125.529 96.6073 125.721 95.6268 125.687C95.2037 125.672 94.8489 126.006 94.8343 126.432C94.8197 126.858 95.1509 127.216 95.574 127.23C96.8246 127.274 98.0503 127.025 98.8762 126.536C99.9707 125.887 100.348 124.798 99.6393 123.718C99.3988 123.35 98.956 123.099 98.2584 122.84L98.1004 122.783C97.0447 122.41 95.4404 122.031 93.2624 121.607L92.5895 121.478C92.1964 121.403 91.7864 121.328 91.3418 121.247L89.1664 120.859C87.3398 120.536 85.4789 120.317 83.7159 120.206Z" fill="var(--color-typo-primary)"/>
<path fill-rule="evenodd" clip-rule="evenodd" d="M70.0317 118.949L70.0198 118.993L66.4171 134.024C66.3042 134.495 66.6444 134.949 67.1175 134.976L67.1622 134.978L87.4753 134.977L87.5627 134.983C90.0656 135.118 91.5591 134.463 91.6131 133.051L91.6145 132.989C91.6154 132.879 91.6059 132.769 91.5867 132.659L91.5783 132.614L91.6508 132.611C93.0814 132.54 94.4955 131.797 94.8281 130.922L94.8457 130.872C94.9323 130.61 94.903 130.323 94.7737 130.019L94.7655 129.999L94.8167 130.006C95.4988 130.09 96.05 130.093 96.4865 130.009L96.5511 129.996C97.8381 129.716 98.1801 128.642 97.5409 127.354C97.156 126.562 95.2896 125.322 92.3818 123.718L91.9063 123.458C89.764 122.297 87.6201 121.267 86.7414 120.985L86.5905 120.94C85.8418 120.729 83.408 120.312 79.6359 119.724L78.7872 119.593C77.6855 119.423 76.5339 119.248 75.3641 119.072L72.3108 118.619L70.8739 118.41C70.4976 118.355 70.1411 118.586 70.0317 118.949ZM68.1361 133.434L71.3464 120.039L73.1242 120.301L75.1381 120.601C75.9723 120.726 76.7971 120.85 77.6011 120.973L79.9892 121.343C83.3065 121.864 85.5418 122.251 86.1668 122.425L86.2171 122.439C88.1022 122.982 95.761 127.205 96.1669 128.039C96.2392 128.185 96.286 128.307 96.3099 128.403L96.3187 128.443L96.3221 128.461L96.2826 128.473L96.2277 128.487C95.7196 128.597 94.7096 128.485 93.238 128.14L92.9391 128.068L92.9253 128.058C92.2786 127.588 91.5005 127.119 90.6337 126.672L90.5292 126.619C90.0685 126.384 89.5686 126.146 89.0352 125.906C88.0489 125.462 86.9949 125.03 85.9413 124.627L85.6321 124.51C85.4809 124.453 85.3349 124.398 85.1949 124.347L84.8444 124.219L84.5321 124.107C84.1321 123.968 83.6955 124.181 83.557 124.584C83.4235 124.973 83.6159 125.396 83.9885 125.551L84.403 125.7L84.6681 125.797C84.8958 125.881 85.1398 125.973 85.397 126.071C86.4252 126.464 87.4529 126.885 88.4095 127.316C88.922 127.547 89.4004 127.775 89.8382 127.997C91.0064 128.591 92.0046 129.246 92.6831 129.841C92.9307 130.057 93.1224 130.255 93.2477 130.417L93.2785 130.458L93.2313 130.495C93.0477 130.635 92.8016 130.771 92.5307 130.876C91.9099 131.117 91.2687 131.161 90.718 130.967L90.7006 130.961L90.6357 130.921C89.8592 130.452 88.8064 129.967 87.5371 129.471L87.3703 129.406C86.8272 129.196 86.2634 128.991 85.6905 128.793L85.3272 128.669L84.9721 128.526C83.4645 127.922 82.9741 127.799 82.5491 127.889L82.5273 127.893C81.7537 128.071 81.7241 129.17 82.4871 129.389L82.7093 129.454L83.1181 129.578C83.2984 129.633 83.4891 129.693 83.6885 129.756L83.8398 129.804C84.0659 129.877 84.2921 129.95 84.5175 130.025L84.7801 130.113L85.6122 130.454L87.371 131.183C87.9021 131.4 88.2455 131.536 88.5895 131.665L88.7267 131.716C89.4796 131.985 90.0845 132.623 90.0815 132.977C90.0809 133.053 90.0285 133.123 89.7914 133.227C89.3734 133.409 88.6612 133.495 87.6647 133.442L87.5484 133.435L87.5008 133.434L68.1361 133.434Z" fill="var(--color-typo-primary)"/>
<path fill-rule="evenodd" clip-rule="evenodd" d="M9.21241 78.5578C8.98245 71.8142 12.6363 65.5597 18.5897 62.4967L28.2224 57.2717L29.27 62.0592C30.4198 67.2584 35.53 70.553 40.6913 69.3948L41.9434 69.1116C47.1047 67.9534 50.3752 62.8056 49.2254 57.6063L47.6157 50.3222C49.4554 49.0353 50.9118 47.285 51.6017 45.02C51.6528 44.8656 51.6783 44.7111 51.7294 44.5824L61.3366 39.3832L61.3622 114.464L35.3001 109.084L36.5521 91.453C36.5776 91.0155 36.271 90.6551 35.8366 90.6294C35.4023 90.6036 35.0446 90.9125 35.019 91.3501L33.7159 109.65C33.6903 110.037 33.9459 110.397 34.3291 110.474L61.3622 116.059V116.265L76.1562 118.994C73.2434 119.56 70.024 134.102 70.024 134.102H17.5421C12.4318 134.102 8.29257 129.881 8.36923 124.708L9.21241 78.5578Z" fill="var(--color-typo-primary)"/>
<path fill-rule="evenodd" clip-rule="evenodd" d="M26.7744 46.1999C26.6875 45.7825 26.2811 45.5152 25.8668 45.6027C25.4673 45.6872 25.2062 46.0708 25.2661 46.4723L25.274 46.517L28.5466 62.2271C29.777 67.7908 35.2025 71.3272 40.7169 70.1843L40.884 70.1482L42.1348 69.8653C47.6579 68.6259 51.1686 63.1605 50.0342 57.6069L49.9984 57.4386L48.3887 50.1544C48.2967 49.7382 47.8872 49.4759 47.4739 49.5685C47.0755 49.6579 46.8191 50.0447 46.8838 50.4455L46.8923 50.49L48.502 57.7743C49.548 62.5038 46.6149 67.1964 41.9424 68.3251L41.8003 68.3582L40.5495 68.6411C35.8544 69.6947 31.1961 66.74 30.0778 62.0435L30.045 61.9006L26.7744 46.1999Z" fill="var(--color-typo-primary)"/>
<path fill-rule="evenodd" clip-rule="evenodd" d="M44.0846 11.0633L44.2534 11.3528C47.171 16.3901 49.6357 22.4849 51.3913 28.5099L51.3958 28.5271L51.3949 28.5183C51.3953 28.5211 51.3958 28.5244 51.3964 28.528L51.4649 28.7637L51.5272 28.9834L51.5924 29.2198C51.6146 29.3016 51.6374 29.3865 51.6608 29.4747C51.8636 30.2395 52.0646 31.083 52.2525 31.9926C52.806 34.6731 53.1316 37.3541 53.1141 39.8704C53.1002 41.8617 52.8687 43.6681 52.3848 45.2478C51.3711 48.5567 48.7879 51.0491 45.2607 52.501C42.1692 53.7735 38.561 54.1287 35.6733 53.4963L35.3655 53.4281C30.6621 52.3734 29.0972 51.4167 26.5198 48.3724L26.4363 48.2734C25.6274 47.3121 24.384 45.3413 22.7969 42.5795L22.4276 41.9336C22.3332 41.7675 22.2379 41.5993 22.1418 41.4291C21.3192 39.9721 20.4684 38.4215 19.6301 36.8625L19.1684 36.0009C19.0651 35.8073 18.9647 35.6189 18.8676 35.4361L18.166 34.1054L18.1254 34.024C18.0186 33.8092 17.8742 33.4918 17.7059 33.0801C17.4479 32.4488 17.196 31.7446 16.9654 30.978C16.323 28.8423 15.949 26.5865 15.967 24.2937C16.018 17.7931 19.1592 12.229 26.3038 8.40662L26.5642 8.26902C27.2312 7.92301 28.0197 7.56307 28.9416 7.21525C30.492 6.63034 32.0808 6.21735 33.6604 6.04922C38.0107 5.58619 41.6521 7.02853 44.013 10.9432L44.0846 11.0633ZM33.8215 7.5857C32.3828 7.73884 30.9164 8.11999 29.4793 8.66218C28.5041 9.03011 27.6903 9.41189 27.0247 9.77027C20.3907 13.3195 17.5468 18.3571 17.5001 24.3066C17.4834 26.4305 17.8324 28.5351 18.4327 30.5308C18.6485 31.2482 18.8837 31.9059 19.1236 32.4928L19.2097 32.6998C19.2519 32.7996 19.2929 32.8939 19.3324 32.9824L19.4198 33.174C19.4423 33.2221 19.4621 33.2636 19.4791 33.2984L19.5566 33.4518L20.0308 34.3524C20.2151 34.7006 20.413 35.0727 20.6225 35.4645L20.7282 35.662C21.6423 37.3685 22.5759 39.0748 23.4744 40.6663L23.7578 41.1665L24.036 41.6537C25.5892 44.3632 26.8185 46.3219 27.5656 47.2272L27.7632 47.4616C30.1267 50.2381 31.4317 50.9877 35.999 51.9879C38.5781 52.5527 41.8712 52.2286 44.6807 51.0721C47.8118 49.7833 50.0538 47.6201 50.9198 44.7931C51.3553 43.3716 51.5681 41.7111 51.581 39.8602C51.597 37.5591 51.3082 35.0877 50.812 32.6057L50.7363 32.2348L50.6933 32.0332C50.4491 30.9041 50.0801 29.4706 49.9431 28.9386L49.9203 28.9455C48.1974 23.033 45.7786 17.0517 42.9304 12.1338L42.7656 11.8512C40.742 8.41529 37.6627 7.17686 33.8215 7.5857Z" fill="var(--color-typo-primary)"/>
<path fill-rule="evenodd" clip-rule="evenodd" d="M50.6558 28.7016C49.1483 23.5538 46.7465 17.0418 43.4249 11.4308C43.2716 11.1734 43.1183 10.916 42.9394 10.6843C45.6223 8.57374 49.9915 12.9236 53.0065 21.9065C54.5652 26.5395 58.8066 28.8817 58.8066 28.8817C55.5617 31.7388 52.6233 30.5033 50.7069 28.8817C50.6814 28.7788 50.6814 28.7016 50.6558 28.7016Z" fill="var(--color-typo-primary)"/>
<path fill-rule="evenodd" clip-rule="evenodd" d="M43.8046 25.4559C43.648 25.0597 43.2022 24.8665 42.8089 25.0242C42.4296 25.1764 42.2377 25.5994 42.3649 25.9847L42.3803 26.0273L45.539 34.0169L43.4401 34.7981C43.0572 34.9405 42.8547 35.3586 42.9723 35.7469L42.9866 35.7899C43.1281 36.1757 43.5431 36.3796 43.9286 36.2612L43.9713 36.2467L46.8074 35.1914C47.1972 35.0464 47.3987 34.6169 47.2697 34.2248L47.254 34.1814L43.8046 25.4559Z" fill="var(--color-typo-primary)"/>
<path fill-rule="evenodd" clip-rule="evenodd" d="M45.4057 25.1363C45.0997 24.4177 45.2195 23.6763 45.6734 23.4801C46.1273 23.2839 46.7434 23.7073 47.0494 24.4258C47.3554 25.1443 47.2356 25.8858 46.7817 26.082C46.3278 26.2782 45.7117 25.8548 45.4057 25.1363Z" fill="var(--color-typo-primary)"/>
<path fill-rule="evenodd" clip-rule="evenodd" d="M37.5224 28.5608C37.3552 27.7974 37.6106 27.0916 38.0928 26.9843C38.5751 26.8771 39.1017 27.4091 39.2689 28.1726C39.4362 28.936 39.1808 29.6418 38.6985 29.7491C38.2162 29.8563 37.6897 29.3243 37.5224 28.5608Z" fill="var(--color-typo-primary)"/>
<path fill-rule="evenodd" clip-rule="evenodd" d="M35.3609 22.7847C35.2779 22.3665 34.8741 22.0953 34.459 22.179C33.2903 22.4144 32.372 22.986 31.6909 23.7849C31.3704 24.161 31.1238 24.5626 30.9404 24.9656C30.8273 25.214 30.7584 25.4156 30.7243 25.5485C30.6184 25.9614 30.8648 26.3826 31.2747 26.4893C31.6699 26.5922 32.0729 26.365 32.1961 25.9785L32.2195 25.8976C32.2384 25.8377 32.2755 25.7375 32.334 25.6092C32.4607 25.3308 32.6326 25.0509 32.8541 24.791C33.3199 24.2445 33.9403 23.8584 34.7596 23.6933C35.1747 23.6097 35.444 23.2029 35.3609 22.7847Z" fill="var(--color-typo-primary)"/>
<path fill-rule="evenodd" clip-rule="evenodd" d="M45.4346 17.1868C44.5174 17.1192 43.5934 17.4316 42.6919 17.9806C42.2172 18.2696 41.8502 18.5591 41.6288 18.7639C41.317 19.0524 41.2964 19.5409 41.5827 19.855C41.8691 20.1691 42.354 20.1898 42.6658 19.9014L42.6976 19.8729C42.7367 19.8386 42.7976 19.7877 42.8775 19.7246C43.0599 19.5808 43.2647 19.4364 43.485 19.3022C44.1396 18.9035 44.7801 18.687 45.3228 18.727C45.5791 18.7459 45.8126 18.8217 46.0307 18.9635L46.0957 19.0081C46.4399 19.2564 46.9187 19.1766 47.1652 18.8299C47.4117 18.4832 47.3325 18.0009 46.9883 17.7525C46.5176 17.4129 45.9924 17.2279 45.4346 17.1868Z" fill="var(--color-typo-primary)"/>
<path fill-rule="evenodd" clip-rule="evenodd" d="M1.7253 28.959L10.3871 24.5319C9.28843 18.0457 9.97831 8.0075 22.064 2.34494C40.9718 -6.50925 47.8706 12.5633 47.8706 12.5633L4.56148 34.5701C3.02841 35.368 1.13763 34.7245 0.345545 33.1802C-0.446539 31.6358 0.166686 29.7569 1.7253 28.959Z" fill="var(--color-typo-link-hover)"/>
<path fill-rule="evenodd" clip-rule="evenodd" d="M38.7803 39.4207C38.4621 39.702 38.4305 40.1898 38.7097 40.5104C38.7663 40.5753 38.8593 40.6697 38.9887 40.7833C39.1935 40.9631 39.4339 41.1409 39.71 41.3059C41.3357 42.2772 43.3899 42.4007 45.7442 41.1762C46.1203 40.9805 46.2678 40.5148 46.0736 40.1358C45.8794 39.7569 45.417 39.6083 45.0408 39.804C43.1725 40.7758 41.6775 40.6858 40.4921 39.9776C40.2991 39.8623 40.1333 39.7397 39.9961 39.6192L39.9332 39.5622L39.862 39.4917C39.5828 39.1712 39.0985 39.1394 38.7803 39.4207Z" fill="var(--color-typo-primary)"/>
<path fill-rule="evenodd" clip-rule="evenodd" d="M11.3838 31.0954L29.6528 21.8036C31.7736 28.47 34.4309 41.8285 23.1117 45.3548C23.1117 45.3548 14.2711 48.3147 11.7159 45.3805C11.7159 45.3805 17.7971 40.9019 16.4174 37.2213C16.4174 37.2213 10.2084 46.4873 2.90081 41.5711C2.92636 41.5711 11.5371 38.7913 11.3838 31.0954Z" fill="var(--color-typo-primary)"/>
</svg>
