<svg width="630" height="359" viewBox="0 0 630 359" fill="none" xmlns="http://www.w3.org/2000/svg">
<path fill-rule="evenodd" clip-rule="evenodd" d="M218.767 256.234L213.775 300.624C213.775 300.624 186.61 330.172 161.666 339.407C128.595 351.626 116.436 334.165 130.382 303.148L161.666 250.221L182.693 228.215L218.803 244.691" fill="var(--color-bg-default)"/>
<path fill-rule="evenodd" clip-rule="evenodd" d="M181.701 227.271C182.083 226.871 182.666 226.741 183.178 226.935L183.263 226.97L219.374 243.446C220.062 243.76 220.366 244.573 220.051 245.26C219.747 245.923 218.98 246.228 218.308 245.967L218.234 245.936L183.011 229.865L162.767 251.051L131.603 303.777L131.435 304.153C125.01 318.646 124.403 330.13 129.308 336.44L129.46 336.631C134.648 343.046 145.701 343.846 161.189 338.124C162.999 337.454 164.855 336.662 166.756 335.752C174.233 332.173 182.214 326.873 190.414 320.31C196.048 315.8 201.451 310.965 206.429 306.129L207.116 305.459L207.784 304.802L208.432 304.16L209.06 303.532L209.667 302.919L210.255 302.322L210.82 301.742L211.605 300.928L212.205 300.297L212.463 300.023L217.404 256.082C217.486 255.357 218.12 254.829 218.84 254.868L218.92 254.874C219.646 254.956 220.175 255.588 220.136 256.307L220.13 256.387L215.138 300.777C215.106 301.066 214.982 301.336 214.786 301.55L214.34 302.028L213.906 302.486L213.421 302.993L212.79 303.646L212.217 304.235C212.119 304.334 212.021 304.435 211.922 304.535L211.316 305.148C211.214 305.252 211.11 305.356 211.006 305.461L210.37 306.097L209.713 306.748L209.037 307.412L208.341 308.091C203.305 312.984 197.838 317.876 192.129 322.446C183.779 329.129 175.633 334.539 167.942 338.22C165.968 339.165 164.034 339.991 162.142 340.691C128.625 353.075 114.361 335.437 129.131 302.587L129.165 302.519L129.201 302.452L160.485 249.525C160.521 249.465 160.561 249.408 160.605 249.354L160.674 249.276L181.701 227.271Z" fill="var(--color-typo-primary)"/>
<path fill-rule="evenodd" clip-rule="evenodd" d="M397.794 212.529C397.794 212.529 435.614 240.571 458.963 287.197C474.139 319.487 412.092 318.186 368.343 313.396C340.154 296.336 340.314 290.5 340.314 290.5L397.794 212.529Z" fill="var(--color-bg-default)"/>
<path fill-rule="evenodd" clip-rule="evenodd" d="M396.689 211.717L339.209 289.689C339.064 289.885 338.975 290.117 338.95 290.358L338.943 290.482C338.937 290.912 339.07 291.445 339.381 292.09L339.48 292.287C339.497 292.321 339.515 292.354 339.533 292.388L339.648 292.596C339.768 292.806 339.905 293.027 340.06 293.259L340.221 293.494L340.394 293.736C340.423 293.777 340.454 293.819 340.485 293.86L340.676 294.113C340.775 294.242 340.878 294.373 340.987 294.507L341.21 294.778C341.248 294.824 341.287 294.87 341.326 294.917L341.569 295.199C341.611 295.247 341.653 295.295 341.696 295.344L341.959 295.638C342.004 295.687 342.05 295.737 342.096 295.787L342.381 296.093C342.429 296.144 342.478 296.196 342.528 296.248L342.833 296.565L343.114 296.85L343.403 297.139L343.702 297.431L344.01 297.726L344.326 298.025L344.652 298.328C344.708 298.378 344.763 298.429 344.819 298.48L345.159 298.788L345.508 299.099L345.866 299.414L346.234 299.733L346.612 300.055L346.998 300.38L347.395 300.709L347.801 301.042L348.216 301.378L348.641 301.718L349.076 302.062L349.521 302.409L349.975 302.76L350.44 303.115L350.914 303.473L351.398 303.835L351.892 304.2L352.397 304.569L352.911 304.942L353.435 305.319L353.97 305.7L354.515 306.084L355.351 306.667L355.922 307.06L356.503 307.458L357.095 307.859L358.002 308.468L358.932 309.085L359.887 309.711L360.865 310.345L361.868 310.988L362.895 311.64L363.947 312.301L364.662 312.746L365.755 313.421L366.873 314.105L367.632 314.566C367.803 314.669 367.995 314.734 368.193 314.756L369.816 314.931L371.43 315.101L373.035 315.264L374.632 315.422L376.22 315.574L377.8 315.72C378.062 315.744 378.324 315.768 378.586 315.791L380.152 315.928L381.708 316.059L383.255 316.184C383.512 316.204 383.769 316.224 384.025 316.244L385.557 316.359C385.812 316.378 386.066 316.396 386.32 316.415L387.838 316.521L389.345 316.621L390.842 316.714L392.329 316.802L393.805 316.882L395.27 316.957C395.513 316.969 395.756 316.98 395.998 316.991L397.447 317.056L398.884 317.114C399.123 317.123 399.361 317.132 399.599 317.14L401.019 317.188C414.457 317.611 426.321 317.126 435.971 315.552C446.355 313.859 453.928 310.931 458.326 306.556C463.346 301.561 464.073 294.847 460.204 286.615C454.134 274.492 446.794 262.989 438.449 252.123C429.744 240.79 420.419 230.739 411.092 222.081L410.281 221.331C410.146 221.207 410.012 221.084 409.878 220.962L409.082 220.236C408.95 220.117 408.818 219.998 408.687 219.88L407.906 219.179L407.136 218.494C407.008 218.381 406.881 218.269 406.754 218.158L406.001 217.498L405.258 216.855C405.013 216.643 404.769 216.434 404.527 216.228L403.809 215.618C403.69 215.518 403.572 215.418 403.454 215.319L402.753 214.735L402.066 214.166L401.596 213.782L400.927 213.24L400.298 212.738L399.712 212.275L399.164 211.85L398.612 211.43C398.002 210.978 397.14 211.107 396.689 211.717ZM341.813 290.775L398.067 214.467L398.418 214.743L398.86 215.094L399.325 215.468L399.813 215.863L400.323 216.28L401 216.839L401.69 217.416L402.392 218.009L403.107 218.618L403.833 219.244L404.571 219.887L405.32 220.546C405.445 220.657 405.572 220.769 405.698 220.881L406.464 221.565C406.592 221.68 406.721 221.796 406.85 221.913L407.632 222.62L408.423 223.345C408.689 223.589 408.956 223.836 409.224 224.085C418.445 232.644 427.667 242.584 436.272 253.789C444.516 264.522 451.762 275.879 457.736 287.808C464.186 301.533 456.198 309.479 435.528 312.85L435.027 312.931C428.456 313.968 420.829 314.5 412.36 314.583L411.084 314.593C409.801 314.598 408.499 314.594 407.18 314.58L405.854 314.563C404.967 314.549 404.071 314.531 403.168 314.509L401.808 314.472C401.352 314.459 400.895 314.444 400.436 314.429L399.053 314.379L397.659 314.324C397.426 314.314 397.192 314.304 396.958 314.293L395.548 314.228C395.312 314.217 395.076 314.205 394.839 314.193L393.413 314.119L391.977 314.038C391.736 314.024 391.496 314.01 391.255 313.996L389.803 313.906C389.56 313.891 389.317 313.875 389.074 313.859L387.607 313.76L386.131 313.656L384.645 313.545L383.15 313.428C382.9 313.408 382.65 313.388 382.399 313.368L380.89 313.243L379.372 313.112C379.118 313.089 378.864 313.067 378.61 313.044L377.079 312.904L375.539 312.759C375.282 312.734 375.024 312.71 374.766 312.684L373.214 312.531L371.653 312.371C371.393 312.344 371.131 312.317 370.87 312.29L369.298 312.122L368.794 312.067L367.569 311.321L366.843 310.875L366.129 310.432L365.077 309.777L364.39 309.345L363.38 308.704L362.719 308.281L361.75 307.655L360.804 307.038L360.186 306.631L359.28 306.028L358.69 305.631L358.109 305.238L357.539 304.849L356.98 304.463L356.431 304.082L355.892 303.704L355.103 303.144L354.336 302.594L353.593 302.051L352.872 301.518L352.174 300.993L351.721 300.647L351.277 300.306C351.204 300.249 351.132 300.193 351.059 300.136L350.631 299.8L350.212 299.468L349.803 299.14L349.403 298.815L349.013 298.494L348.633 298.176L348.08 297.708L347.724 297.399L347.377 297.095L347.039 296.794L346.71 296.498L346.391 296.204L346.081 295.915L345.78 295.629L345.489 295.346L345.206 295.068L344.933 294.792L344.799 294.656C344.692 294.546 344.587 294.437 344.486 294.331L344.19 294.015C344.142 293.963 344.095 293.911 344.048 293.86L343.779 293.559C343.604 293.361 343.441 293.17 343.289 292.986L343.069 292.714L342.865 292.451C342.799 292.365 342.737 292.281 342.677 292.198L342.504 291.955L342.346 291.722C342.196 291.493 342.069 291.279 341.962 291.078L341.91 290.978L341.85 290.854L341.813 290.775Z" fill="var(--color-typo-primary)"/>
<path fill-rule="evenodd" clip-rule="evenodd" d="M375.55 277.007C391.206 269.186 409.124 267.819 425.793 274.136C426.501 274.405 426.858 275.195 426.589 275.902C426.32 276.609 425.528 276.964 424.82 276.696C408.893 270.659 391.769 271.966 376.778 279.455C376.101 279.793 375.277 279.52 374.938 278.844C374.599 278.168 374.873 277.345 375.55 277.007Z" fill="var(--color-typo-primary)"/>
<path fill-rule="evenodd" clip-rule="evenodd" d="M185.074 286.8C185.208 287.517 184.756 288.207 184.056 288.379L182.876 288.611L181.834 288.822L181.029 288.989L180.197 289.166L179.339 289.351L178.457 289.545L177.551 289.748L176.622 289.96C176.465 289.996 176.308 290.033 176.15 290.07C170.27 291.435 164.391 293.018 158.912 294.798L158.492 294.936L157.659 295.211L156.838 295.488L156.029 295.767L155.233 296.047L154.448 296.328L153.676 296.611C153.549 296.658 153.422 296.706 153.295 296.753L152.542 297.038C152.293 297.133 152.046 297.228 151.802 297.324L151.074 297.611C150.474 297.851 149.887 298.093 149.314 298.335L148.633 298.627C145.376 300.041 142.597 301.498 140.377 302.992C139.749 303.414 138.897 303.248 138.474 302.621C138.051 301.994 138.217 301.144 138.845 300.721C141.57 298.888 145.027 297.133 149.107 295.453L149.856 295.149C149.982 295.098 150.108 295.048 150.235 294.997L151.004 294.695L151.786 294.395C152.575 294.095 153.384 293.798 154.211 293.504L155.046 293.21L155.892 292.918C156.034 292.869 156.177 292.821 156.32 292.773L157.186 292.483C157.476 292.387 157.769 292.291 158.063 292.195C163.626 290.388 169.577 288.785 175.528 287.403L176.478 287.184C176.635 287.149 176.79 287.113 176.945 287.078L177.862 286.873L178.755 286.676L179.623 286.489L180.876 286.224L182.141 285.966L183.229 285.752L183.475 285.705C184.219 285.567 184.935 286.057 185.074 286.8Z" fill="var(--color-typo-primary)"/>
<path fill-rule="evenodd" clip-rule="evenodd" d="M346.023 174.23C370.995 181.831 406.36 218.118 406.36 218.118L366.044 261.262L376.164 285.682L357.775 307.906L365.944 356.69L207.522 357.347L220.321 299.196L154.042 258.785L185.257 209.221C185.257 209.221 193.563 193.767 220.847 187.425C242.87 182.301 322.108 166.943 346.023 174.23Z" fill="var(--color-bg-default)" stroke="var(--color-typo-primary)" stroke-width="3"/>
<path fill-rule="evenodd" clip-rule="evenodd" d="M300.085 164.091L299.664 175.202L308.998 174.549C312.577 176.757 318.099 212.351 284.662 219.519C258.772 225.067 246.312 198.9 242.691 183.903L252.953 181.274L260.642 137.167L300.085 164.091Z" fill="var(--color-bg-default)"/>
<path fill-rule="evenodd" clip-rule="evenodd" d="M259.291 136.933L251.754 180.168L242.351 182.577C241.625 182.763 241.183 183.496 241.358 184.223C243.63 193.636 248.141 203.333 254.296 210.319C262.35 219.461 272.64 223.495 284.95 220.857C300.267 217.573 309.068 208.237 312.047 195.485C312.883 191.901 313.171 188.033 313.032 184.538L313.007 184.004C312.961 183.118 312.886 182.258 312.786 181.437L312.723 180.949C312.701 180.788 312.678 180.628 312.654 180.47L312.579 180.002C312.021 176.682 311.012 174.183 309.719 173.385L309.636 173.337C309.411 173.219 309.157 173.166 308.902 173.184L301.092 173.73L301.455 164.143C301.473 163.673 301.248 163.227 300.859 162.962L261.416 136.037C260.592 135.475 259.462 135.951 259.291 136.933ZM261.627 139.498L298.685 164.794L298.294 175.15L298.293 175.23C298.309 176.006 298.973 176.622 299.76 176.567L308.491 175.956L308.511 175.987C308.619 176.162 308.739 176.409 308.862 176.718L308.946 176.933L309.03 177.165L309.114 177.415C309.128 177.458 309.143 177.501 309.157 177.546L309.241 177.819L309.326 178.108L309.409 178.411L309.491 178.728L309.571 179.058L309.649 179.401L309.724 179.755C309.736 179.815 309.749 179.876 309.761 179.937L309.832 180.307L309.899 180.688L309.962 181.078L310.021 181.476C310.03 181.543 310.039 181.611 310.048 181.679C310.591 185.773 310.412 190.427 309.376 194.863C306.63 206.621 298.61 215.128 284.374 218.18C273.097 220.597 263.788 216.948 256.355 208.511L256.087 208.204C250.75 202.021 246.701 193.589 244.45 185.248L244.355 184.889L253.294 182.6C253.816 182.466 254.212 182.039 254.304 181.509L261.627 139.498Z" fill="var(--color-typo-primary)"/>
<rect width="10.1029" height="17.7583" transform="matrix(-0.943733 0.330708 -0.331782 -0.943356 263.499 46.4853)" fill="var(--color-typo-primary)"/>
<ellipse cx="246.092" cy="17.8263" rx="17.8588" ry="17.8263" fill="var(--color-typo-primary)"/>
<path fill-rule="evenodd" clip-rule="evenodd" d="M260.455 124.88L256.821 125.605C256.821 125.605 235.762 128.069 236.946 108.792C237.86 94.1915 252.277 95.0538 259.193 96.336" fill="var(--color-bg-default)"/>
<path fill-rule="evenodd" clip-rule="evenodd" d="M245.405 95.303C249.547 93.9932 254.438 94.0622 259.443 94.9901C260.188 95.1281 260.679 95.8426 260.541 96.5858C260.403 97.3291 259.687 97.8197 258.943 97.6817C254.341 96.8286 249.862 96.7654 246.233 97.9128C241.481 99.4154 238.692 102.844 238.315 108.876C237.825 116.852 241.202 121.291 247.284 123.268C250.149 124.199 253.193 124.451 255.84 124.307L256.209 124.285L256.543 124.258L256.611 124.251L260.186 123.538C260.902 123.395 261.599 123.837 261.781 124.533L261.799 124.611C261.942 125.326 261.5 126.022 260.802 126.204L260.723 126.222L257.089 126.948L257.035 126.957L256.933 126.97L256.747 126.988L256.5 127.008L256.301 127.022C253.272 127.22 249.787 126.96 246.435 125.871C239.217 123.525 235.007 117.993 235.577 108.707C236.027 101.523 239.592 97.1411 245.405 95.303Z" fill="var(--color-typo-primary)"/>
<path fill-rule="evenodd" clip-rule="evenodd" d="M335.615 116.758C334.939 125.551 327.223 165.529 298.983 165.241C270.744 164.954 254.869 137.409 255.042 111.019C255.216 84.6283 269.455 64.2879 287.336 64.0598C305.218 63.8317 340.511 53.1094 335.615 116.758Z" fill="var(--color-bg-default)"/>
<path fill-rule="evenodd" clip-rule="evenodd" d="M295.881 62.1966L291.495 62.5034L290.004 62.5966L289.114 62.6418L288.495 62.6655L287.96 62.68L287.319 62.691C268.474 62.9314 253.849 84.084 253.671 111.01C253.581 124.738 257.726 138.439 265.251 148.726C273.482 159.977 285.153 166.469 298.969 166.61C312.143 166.744 322.013 158.679 328.862 145.017C333.495 135.776 336.416 124.228 336.983 116.863C338.598 95.8571 335.991 81.6116 329.619 72.8886C324.382 65.7192 316.97 62.531 307.116 61.97L306.588 61.9425L306.158 61.9233L305.517 61.9001L304.878 61.8836L304.236 61.8737L303.588 61.8704L303.151 61.8718L302.483 61.8795L302.029 61.8883L301.331 61.9069L300.853 61.9229L299.86 61.9636L299.079 62.0017L297.982 62.0626L296.507 62.1548L295.881 62.1966ZM327.403 74.5015C333.324 82.6068 335.818 96.237 334.248 116.654C333.707 123.684 330.872 134.889 326.409 143.792C319.983 156.611 310.948 163.994 298.997 163.873C286.083 163.741 275.205 157.69 267.466 147.111C260.298 137.314 256.327 124.186 256.414 111.028C256.582 85.4275 270.259 65.6465 287.354 65.4284L287.873 65.4202L288.373 65.4083L289.007 65.3866L289.684 65.3556L290.815 65.2909L292.58 65.1735L295.737 64.9506L296.963 64.8685L297.829 64.8143L298.919 64.7518L299.943 64.7005L300.674 64.6695L301.145 64.6523L301.831 64.6318L302.496 64.6177L303.143 64.61L303.566 64.6084L304.193 64.6113L304.606 64.6168L305.222 64.6304L305.838 64.6505L306.25 64.6674L306.664 64.6872C315.919 65.1599 322.664 68.0141 327.403 74.5015Z" fill="var(--color-typo-primary)"/>
<path fill-rule="evenodd" clip-rule="evenodd" d="M261.652 40.498C277.527 35.4791 294.563 33.1567 309.569 39.1018C355 59.6064 355.119 93.8036 336.013 109.367V109.367C336.739 85.1391 330.806 73.3902 322.464 67.8466C313.35 82.3467 283.908 94.9077 256.944 95.2226C256.884 95.4644 256.834 95.7062 256.779 95.948C249.383 95.0355 237.75 95.6925 236.946 108.778C235.835 126.828 254.233 125.82 256.601 125.614C256.912 127.043 260.683 139.95 260.683 139.95L256.606 158.47L196.621 149.194C194.912 149.156 193.323 148.308 192.341 146.911C191.359 145.514 191.102 143.735 191.647 142.118C198.86 120.673 210.617 57.389 261.652 40.498Z" fill="var(--color-typo-primary)"/>
<path fill-rule="evenodd" clip-rule="evenodd" d="M309.97 93.8282C310.699 93.7906 311.325 94.3289 311.403 95.0443L311.41 95.1245L313.156 128.833C313.199 129.655 312.513 130.321 311.703 130.27L311.622 130.263L303.234 129.25C302.482 129.159 301.946 128.477 302.037 127.727C302.125 127.003 302.764 126.48 303.483 126.525L303.563 126.532L310.333 127.35L308.671 95.2659C308.633 94.5379 309.173 93.9134 309.889 93.8347L309.97 93.8282Z" fill="var(--color-typo-primary)"/>
<path fill-rule="evenodd" clip-rule="evenodd" d="M323.82 93.1705C325.904 93.5011 327.626 94.6213 328.738 96.6267C329.105 97.2881 328.865 98.1211 328.202 98.4872C327.54 98.8534 326.705 98.614 326.339 97.9526C325.653 96.7162 324.671 96.0775 323.389 95.8742C322.353 95.7099 321.19 95.8435 320.044 96.174C319.818 96.2392 319.608 96.308 319.418 96.3769L319.218 96.4519L319.033 96.528C318.344 96.8411 317.53 96.5371 317.217 95.8491C316.903 95.161 317.208 94.3494 317.897 94.0363L317.967 94.005L318.127 93.9377L318.312 93.8651L318.521 93.7883L318.753 93.7084L319.007 93.6266L319.283 93.5441C320.783 93.1113 322.328 92.9339 323.82 93.1705Z" fill="var(--color-typo-primary)"/>
<path fill-rule="evenodd" clip-rule="evenodd" d="M287.041 91.7706C288.828 90.9329 290.671 90.5346 292.47 90.8524C293.958 91.1153 295.291 91.8652 296.387 93.133C296.882 93.7053 296.819 94.5696 296.245 95.0635C295.672 95.5574 294.806 95.4939 294.311 94.9216C293.63 94.1336 292.862 93.7019 291.992 93.5481C290.843 93.3452 289.528 93.6294 288.207 94.2485C287.913 94.3865 287.637 94.5326 287.386 94.6796L287.14 94.8284L286.948 94.9525L286.865 95.0097C286.253 95.4554 285.395 95.3217 284.949 94.7111C284.502 94.1005 284.636 93.2442 285.248 92.7985C285.298 92.7623 285.352 92.7241 285.41 92.6844L285.597 92.5603C285.963 92.3246 286.452 92.0467 287.041 91.7706Z" fill="var(--color-typo-primary)"/>
<ellipse rx="4.32558" ry="2.8019" transform="matrix(0.154123 -0.988052 0.988137 0.153574 291.539 103.502)" fill="var(--color-typo-primary)"/>
<ellipse rx="4.32549" ry="2.80197" transform="matrix(0.106978 -0.994261 0.994303 0.106592 321.941 106.096)" fill="var(--color-typo-primary)"/>
<path fill-rule="evenodd" clip-rule="evenodd" d="M251.254 123.924C251.911 123.609 252.695 123.864 253.045 124.492L253.084 124.566L259.3 137.496C259.628 138.178 259.34 138.996 258.657 139.323C258 139.638 257.216 139.383 256.866 138.755L256.827 138.681L250.611 125.75C250.283 125.069 250.571 124.251 251.254 123.924Z" fill="var(--color-typo-primary)"/>
<path fill-rule="evenodd" clip-rule="evenodd" d="M252.688 94.7594C253.309 94.378 254.115 94.5502 254.528 95.1384L254.574 95.2081L267.633 116.402C268.03 117.046 267.829 117.889 267.184 118.285C266.563 118.666 265.756 118.494 265.343 117.906L265.297 117.836L252.238 96.6424C251.841 95.9985 252.043 95.1554 252.688 94.7594Z" fill="var(--color-typo-primary)"/>
<path fill-rule="evenodd" clip-rule="evenodd" d="M263.956 112.506C263.956 112.506 263.412 134.407 255.042 134.922C258.178 144.545 285.179 183.423 315.608 162.622C321.256 158.68 325.912 153.486 329.211 147.447C336.612 134.215 336.068 125.71 336.068 125.71C336.068 125.71 323.406 112.78 313.373 110.695C303.339 108.61 299.331 115.85 286.047 118.342C278.179 119.805 270.069 117.663 263.956 112.506V112.506Z" fill="var(--color-typo-primary)"/>
<path fill-rule="evenodd" clip-rule="evenodd" d="M269.343 99.7336C266.91 113.45 272.988 125.757 283.148 127.091C293.308 128.424 303.375 118.238 305.808 104.521C308.241 90.804 302.163 78.4978 292.003 77.1639C281.843 75.83 271.776 86.0167 269.343 99.7336ZM271.972 100.078C274.157 87.7522 282.982 78.8168 291.509 79.9369C300.036 81.057 305.364 91.8516 303.179 104.177C300.994 116.502 292.169 125.438 283.642 124.318C275.115 123.197 269.787 112.403 271.972 100.078Z" fill="var(--color-typo-primary)"/>
<path fill-rule="evenodd" clip-rule="evenodd" d="M315.097 105.32C312.813 118.202 318.524 129.767 328.084 131.022C337.645 132.277 347.105 122.704 349.389 109.822C351.674 96.941 345.962 85.3758 336.402 84.1206C326.842 82.8654 317.382 92.4387 315.097 105.32ZM317.726 105.664C319.763 94.1744 327.981 85.8524 335.908 86.8938C343.835 87.9351 348.797 97.9887 346.76 109.479C344.724 120.969 336.505 129.291 328.578 128.249C320.651 127.208 315.69 117.154 317.726 105.664Z" fill="var(--color-typo-primary)"/>
<path fill-rule="evenodd" clip-rule="evenodd" d="M304.28 102.214C304.36 101.489 304.992 100.959 305.713 100.996L305.793 101.003L316.21 102.143C316.963 102.226 317.506 102.902 317.424 103.653C317.344 104.378 316.712 104.908 315.991 104.871L315.911 104.865L305.494 103.724C304.741 103.642 304.198 102.966 304.28 102.214Z" fill="var(--color-typo-primary)"/>
<path fill-rule="evenodd" clip-rule="evenodd" d="M269.998 93.4964C270.754 93.4482 271.406 94.0207 271.454 94.7752C271.501 95.5026 270.969 96.1336 270.253 96.221L270.173 96.2284L253.493 97.2915C252.738 97.3397 252.086 96.7671 252.038 96.0127C251.991 95.2852 252.523 94.6542 253.238 94.5669L253.319 94.5595L269.998 93.4964Z" fill="var(--color-typo-primary)"/>
<ellipse rx="81.2007" ry="81.0977" transform="matrix(-1 0 0 1 277.193 246.34)" fill="var(--color-typo-primary)"/>
<ellipse cx="277.193" cy="247.143" rx="73.1615" ry="73.0687" fill="var(--color-bg-default)"/>
<ellipse cx="222.664" cy="237.683" rx="11.0619" ry="11.0478" fill="var(--color-typo-primary)"/>
<ellipse cx="236.685" cy="279.961" rx="11.0619" ry="11.0478" fill="var(--color-typo-primary)"/>
<ellipse cx="285.139" cy="302.646" rx="11.0619" ry="11.0478" fill="var(--color-typo-primary)"/>
<ellipse cx="277.193" cy="205.982" rx="11.0619" ry="11.0478" fill="var(--color-typo-primary)"/>
<ellipse cx="322.855" cy="223.127" rx="11.0619" ry="11.0478" fill="var(--color-typo-primary)"/>
<line y1="-1.5" x2="153.553" y2="-1.5" transform="matrix(-0.326893 0.945061 -0.945317 -0.326153 305.372 175.094)" stroke="var(--color-typo-primary)" stroke-width="3"/>
<line y1="-1.5" x2="150.38" y2="-1.5" transform="matrix(0.795837 0.60551 -0.606484 0.795096 214.239 203.203)" stroke="var(--color-typo-primary)" stroke-width="3"/>
<line y1="-1.5" x2="155.411" y2="-1.5" transform="matrix(0.977173 -0.212443 0.212959 0.977061 203.964 269.681)" stroke="var(--color-typo-primary)" stroke-width="3"/>
<path fill-rule="evenodd" clip-rule="evenodd" d="M276.96 261.468C274.574 260.377 254.037 264.05 242.779 265.912C242.779 265.912 258.896 261.637 265.634 258.744C272.371 255.851 270.716 250.531 267.128 250.221C265.149 250.061 248.278 254.423 231.804 260.783C233.102 257.088 236.992 244.636 230.656 243.509C223.384 242.213 223.43 258.475 208.592 271.962C205.091 274.243 202.298 276.57 200.62 278.902L165.927 289.428L182.446 344.978L211.44 304.325C221.364 309.494 247.263 297.134 247.263 297.134C269.053 295.496 269.999 288.803 266.219 287.79C262.438 286.777 244.091 287.165 244.091 287.165C244.091 287.165 246.422 285.216 261.917 284.975C277.413 284.733 276.046 275.913 272.86 275.124C269.674 274.334 243.304 276.876 243.304 276.876L271.452 271.172C279.109 270.128 280.599 263.124 276.96 261.468Z" fill="var(--color-typo-primary)"/>
<path fill-rule="evenodd" clip-rule="evenodd" d="M380.877 274.02L331.739 285.559C330.976 285.321 329.747 284.888 329.747 284.888C308.747 284.158 298.234 270.68 293.252 276.356C289.787 280.302 296.383 285.901 300.73 288.949C285.23 293.347 270.356 299.762 268.774 301.044C265.968 303.298 267.595 308.641 274.799 307.268C282.003 305.894 297.754 300.424 297.754 300.424C287.378 305.178 268.313 313.628 266.946 315.859C264.866 319.272 270.031 324.236 277.002 320.801L303.514 309.773C303.514 309.773 280.224 322.42 278.03 324.857C275.836 327.293 279.671 335.351 292.621 326.896C305.571 318.442 308.619 318.747 308.619 318.747C308.619 318.747 293.307 329.839 290.747 332.791C288.187 335.743 298.924 343.285 312.317 330.35C312.317 330.35 337.088 321.362 340.337 316.206L392.684 332.75L380.877 274.02Z" fill="var(--color-typo-primary)"/>
<path fill-rule="evenodd" clip-rule="evenodd" d="M628.629 355.262C629.386 355.262 630 355.875 630 356.631C630 357.36 629.429 357.956 628.709 357.998L628.629 358H1.37129C0.613949 358 0 357.387 0 356.631C0 355.902 0.570879 355.306 1.29072 355.265L1.37129 355.262H628.629Z" fill="var(--color-typo-primary)"/>
<path d="M241.466 203.648L250.544 219.35H232.389L241.466 203.648Z" fill="var(--color-typo-primary)"/>
<path d="M289.97 234.111L283.259 250.958L272.006 236.729L289.97 234.111Z" fill="var(--color-typo-primary)"/>
<path d="M301.799 193.61L295.088 210.457L283.835 196.228L301.799 193.61Z" fill="var(--color-typo-primary)"/>
<path d="M327.907 261.095L321.196 277.942L309.943 263.714L327.907 261.095Z" fill="var(--color-typo-primary)"/>
<path d="M256.498 301.083L249.786 317.93L238.534 303.702L256.498 301.083Z" fill="var(--color-typo-primary)"/>
<path d="M368.922 231.746L352.153 279.093" stroke="var(--color-bg-default)" stroke-width="2" stroke-linecap="round" stroke-linejoin="round"/>
</svg>
