<svg width="232" height="183" viewBox="0 0 232 183" fill="none" xmlns="http://www.w3.org/2000/svg">
<path fill-rule="evenodd" clip-rule="evenodd" d="M176.869 85.2611C176.512 85.2611 176.222 85.5507 176.222 85.9079C176.222 86.2523 176.492 86.5338 176.831 86.5535L176.869 86.5546H204.649C220.708 86.5546 232.112 99.3363 230.378 115.246L230.321 115.729L220.867 181.046C220.823 181.4 221.074 181.724 221.429 181.768C221.77 181.811 222.083 181.579 222.145 181.244L222.15 181.207L231.604 115.89C233.701 99.1544 221.889 85.5359 205.157 85.2652L204.649 85.2611H176.869Z" fill="var(--color-typo-primary)"/>
<path fill-rule="evenodd" clip-rule="evenodd" d="M157.805 71.7301C157.533 71.6895 157.264 71.8262 157.137 72.0706L156.383 73.5141C156.355 73.5668 156.335 73.6231 156.323 73.6812L156.315 73.7251L155.41 80.2357C155.389 80.3843 155.421 80.535 155.499 80.6622L155.524 80.6996L158.972 85.5503C159.179 85.8414 159.582 85.9095 159.873 85.7025C160.153 85.5035 160.227 85.1225 160.048 84.8347L160.026 84.8006L156.726 80.1595L157.581 74.0145L158.069 73.0786L158.138 73.0894C166.539 74.4034 171.796 76.8018 174.205 80.0958L174.278 80.1979C176.372 83.1494 176.212 86.8555 174.028 91.2244C173.837 91.6069 174.063 92.0664 174.482 92.1484C188.675 94.9211 200.224 106.827 207.115 123.921C213.323 139.321 214.719 156.855 210.699 168.109L210.046 169.954C208.664 173.84 207.826 175.727 206.579 177.405C204.976 179.56 202.988 180.653 200.246 180.679C199.889 180.682 199.602 180.975 199.606 181.332C199.609 181.689 199.901 181.976 200.258 181.972C203.421 181.943 205.78 180.646 207.616 178.177L207.72 178.035C208.976 176.307 209.828 174.4 211.152 170.702L211.89 168.62C211.899 168.594 211.908 168.569 211.917 168.544C216.054 156.963 214.632 139.111 208.314 123.437C201.415 106.323 189.886 94.2388 175.608 91.0622L175.545 91.0484L175.589 90.9528C177.553 86.5926 177.598 82.7268 175.404 79.5515L175.333 79.4493C172.664 75.688 166.914 73.0854 157.805 71.7301Z" fill="var(--color-typo-primary)"/>
<path fill-rule="evenodd" clip-rule="evenodd" d="M149.671 102.616C149.671 102.573 149.671 102.53 149.671 102.487C148.659 102.595 147.667 102.595 146.697 101.775C144.327 99.7274 143.486 99.1022 143.486 99.1022C143.486 99.1022 143.271 99.3609 142.883 99.7921C142.409 98.9297 141.935 98.0243 141.439 97.1188C151.676 89.1854 159.499 85.1755 159.499 85.1755L160.081 84.7659L163.831 89.3579C163.831 89.3579 157.71 93.5617 149.671 102.616Z" fill="var(--color-typo-link-hover)"/>
<path fill-rule="evenodd" clip-rule="evenodd" d="M100.19 177.036C100.19 177.036 116.569 132.971 114.478 119.324C113.336 111.865 115.125 103.436 117.582 96.9034L122.28 97.2053L127.905 110.485C127.538 110.571 127.172 110.658 126.806 110.701C126.806 110.701 127.021 112.102 127.56 115.293C127.926 117.427 127.301 117.664 126.827 119.152C126.202 120.143 125.728 121.264 126.245 123.011C126.418 123.571 126.827 128.918 127.754 136.161C126.03 139.805 124.392 143.685 122.84 147.824C112.905 174.319 113.94 177.208 113.94 177.208L100.19 177.036Z" fill="var(--color-typo-link-hover)"/>
<path fill-rule="evenodd" clip-rule="evenodd" d="M120.844 73.2165C120.729 72.8785 120.361 72.6984 120.023 72.8142C113.474 75.0582 108.903 78.6023 105.921 83.2295C103.759 86.5834 102.608 90.0741 101.846 94.4853L101.815 94.6681L101.378 95.0011C80.513 110.986 65.604 129.009 55.6972 147.92L55.3955 148.499C51.671 155.689 48.8648 162.649 46.8491 169.225C45.4319 173.849 44.5517 177.781 44.078 180.883C44.0241 181.236 44.2665 181.566 44.6195 181.62C44.9724 181.674 45.3023 181.431 45.3562 181.078L45.4066 180.755C45.8822 177.764 46.7363 174.006 48.0854 169.604C50.0787 163.101 52.8558 156.214 56.5436 149.094C66.462 129.946 81.5417 111.692 102.801 95.5426C102.932 95.4426 103.021 95.2959 103.048 95.1328C103.783 90.673 104.888 87.2191 107.008 83.9305C109.831 79.5495 114.166 76.1884 120.442 74.0379C120.78 73.9221 120.96 73.5544 120.844 73.2165Z" fill="var(--color-typo-primary)"/>
<path fill-rule="evenodd" clip-rule="evenodd" d="M110.546 116.155C110.084 116.172 109.721 116.549 109.716 117.006L109.716 117.061L109.721 117.204C109.725 117.335 109.728 117.489 109.732 117.665C109.829 122.521 109.585 128.399 108.715 134.022C108.322 136.569 107.816 138.896 107.188 140.954C107.049 141.409 107.306 141.891 107.761 142.03C108.217 142.169 108.699 141.912 108.837 141.457C109.491 139.314 110.014 136.908 110.419 134.286C111.29 128.655 111.545 122.803 111.461 117.912L111.448 117.298L111.439 116.985C111.422 116.524 111.046 116.16 110.589 116.155L110.546 116.155Z" fill="var(--color-typo-primary)"/>
<path fill-rule="evenodd" clip-rule="evenodd" d="M103.056 94.8554C102.905 95.7824 102.776 96.6232 102.668 97.3562C101.354 105.936 104.177 111.649 106.052 115.595C101.03 112.037 97.6253 105.268 95.9227 100.116C97.9701 98.4772 100.793 96.537 103.056 94.8554Z" fill="var(--color-typo-primary)"/>
<path fill-rule="evenodd" clip-rule="evenodd" d="M174.089 91.1257C177.602 91.8371 183.378 93.6049 187.559 96.4721C184.649 98.0675 170.231 106.691 158.464 111.865C158.378 111.822 157.732 110.744 157.408 110.313C163.917 105.16 170.77 97.7872 174.089 91.1257Z" fill="var(--color-typo-primary)"/>
<path fill-rule="evenodd" clip-rule="evenodd" d="M164.776 56.1584C164.432 56.0645 164.076 56.2679 163.982 56.6125C163.892 56.9449 164.078 57.2872 164.4 57.3954L164.513 57.4289C164.547 57.4395 164.59 57.4532 164.642 57.4701C164.817 57.528 165.015 57.6 165.228 57.6865C165.837 57.934 166.446 58.2466 167.011 58.6272C169.391 60.2301 170.247 62.4262 168.785 65.5174C167.867 67.4594 166.585 68.2836 164.949 68.2757C163.646 68.2694 162.198 67.7472 160.615 66.8483C160.305 66.6719 159.91 66.7807 159.734 67.0913C159.557 67.402 159.666 67.7967 159.977 67.9731C161.735 68.9719 163.37 69.5616 164.943 69.5692C167.086 69.5796 168.823 68.4625 169.954 66.0704C171.716 62.3439 170.603 59.487 167.734 57.5543C167.088 57.1197 166.401 56.767 165.714 56.488C165.299 56.3196 164.973 56.2119 164.776 56.1584Z" fill="var(--color-typo-primary)"/>
<path fill-rule="evenodd" clip-rule="evenodd" d="M143.991 26.7988C145.334 27.0682 146.485 27.3889 147.444 27.7124L147.573 27.7565C155.715 30.5292 160.638 35.3881 162.867 41.7232C164.5 46.366 164.55 51.2928 163.658 55.8899C163.546 56.4678 163.426 56.9932 163.305 57.4598L163.252 57.6617L163.216 57.7949C163.193 57.8791 163.172 57.9538 163.153 58.0189L163.118 58.1363C163.093 58.5571 162.674 58.8467 162.268 58.7113L160.053 57.9727L160.023 57.9958C158.178 59.4394 153.22 65.6855 151.622 68.7251C151.445 69.0619 151.017 69.1738 150.698 68.9667L150.508 68.8468L150.312 68.7263C150.242 68.6839 150.168 68.6392 150.09 68.5923L149.927 68.4956C149.284 68.1148 148.527 67.6898 147.661 67.2315C145.185 65.9198 142.341 64.6073 139.175 63.3818L138.769 63.2259C136.193 62.2434 133.512 61.3628 130.741 60.6085L130.306 60.4917L129.85 60.3914C129.747 60.369 129.638 60.3456 129.524 60.3214L129.29 60.2719C128.487 60.1031 127.635 59.9343 126.773 59.7768C126.087 59.6515 125.422 59.5386 124.789 59.4412L124.356 59.3763C122.796 59.1487 121.534 59.0367 120.686 59.0674C120.288 59.0818 119.972 58.7362 120.021 58.3408C121.05 50.1073 123 41.6836 125.794 34.5989C127.934 29.1667 132.205 26.6079 137.798 26.3001C139.823 26.1887 141.913 26.382 143.991 26.7988ZM137.869 27.5918C132.744 27.8739 128.934 30.1566 126.997 35.0735L126.871 35.3963C124.313 41.9792 122.483 49.7281 121.451 57.3742L121.397 57.7764L121.414 57.7771C122.363 57.8102 123.57 57.9449 124.986 58.1629C125.631 58.2622 126.308 58.3771 127.005 58.5045C127.77 58.6442 128.526 58.7926 129.248 58.942L129.793 59.0564C129.947 59.0891 130.092 59.1204 130.227 59.1498L130.612 59.2349L130.635 59.2406C133.756 60.0721 136.764 61.0614 139.642 62.1756C142.857 63.4201 145.746 64.7538 148.266 66.0885L148.614 66.2739C149.355 66.6716 150.013 67.0436 150.586 67.3825L150.814 67.5182L150.837 67.4774C152.909 63.9259 157.908 57.7466 159.614 56.705L159.652 56.6835C159.807 56.6028 159.988 56.5879 160.155 56.6435L162.02 57.265C162.145 56.7936 162.271 56.2498 162.388 55.6436C163.24 51.2529 163.193 46.5469 161.647 42.1528C159.571 36.2522 155.016 31.7177 147.387 29.0605L147.155 28.9805C146.22 28.659 145.079 28.3365 143.737 28.0672C141.759 27.6704 139.775 27.487 137.869 27.5918Z" fill="var(--color-typo-primary)"/>
<path fill-rule="evenodd" clip-rule="evenodd" d="M160.157 56.622C159.976 56.5614 159.777 56.5838 159.614 56.6832C157.926 57.7144 153.01 63.781 150.901 67.3483L150.814 67.4964L150.586 67.3607L150.316 67.2019C149.717 66.8531 149.033 66.4722 148.267 66.0667C145.747 64.732 142.858 63.3983 139.643 62.1538C136.901 61.0927 134.043 60.1448 131.081 59.3387L130.636 59.2188L130.329 59.1498L129.797 59.0344L129.56 58.9841C128.748 58.8128 127.887 58.6416 127.015 58.4817C126.414 58.3716 125.829 58.2708 125.265 58.1813L124.985 58.1375C123.122 57.8503 121.622 57.7081 120.592 57.7533C120.295 57.7663 120.045 57.9807 119.986 58.2726L119.956 58.4311L119.896 58.7658C119.882 58.8459 119.868 58.9307 119.853 59.0199L119.804 59.3229C119.722 59.8386 119.641 60.4077 119.564 61.023C119.112 64.6624 118.982 68.4388 119.374 71.98C119.388 72.1077 119.403 72.2349 119.418 72.3615C119.462 72.716 119.784 72.9683 120.138 72.9249C120.493 72.8816 120.745 72.559 120.702 72.2045C120.687 72.0829 120.673 71.9606 120.659 71.8378C120.28 68.4111 120.406 64.73 120.847 61.1826L120.893 60.828C120.961 60.3046 121.033 59.8193 121.105 59.3777L121.161 59.0399L121.226 59.0412C122.096 59.0608 123.26 59.1842 124.644 59.3939L124.788 59.4159C125.424 59.5139 126.092 59.6276 126.782 59.754C127.534 59.892 128.279 60.0387 128.99 60.1864L129.639 60.3234L130.16 60.4373L130.317 60.4725L130.741 60.5868C133.513 61.3412 136.193 62.2217 138.77 63.2042L139.176 63.3602C142.342 64.5856 145.185 65.8982 147.662 67.2099L148.002 67.3914C148.671 67.7507 149.271 68.0879 149.798 68.3972L150.09 68.5706C150.169 68.6175 150.243 68.6622 150.313 68.7046L150.651 68.9142C150.671 68.9273 150.687 68.9376 150.699 68.945C151.018 69.1522 151.446 69.0402 151.623 68.7034C153.204 65.6942 158.079 59.5423 159.967 58.0189L160.053 57.9512L163.614 59.144L162.416 61.5669L161.498 63.4157C160.809 64.7979 160.124 66.1653 159.458 67.4843L158.536 69.3052C156.589 73.1333 155.117 75.9244 154.311 77.2756C151.735 81.5772 150.218 82.8587 144.395 85.1538C142.438 85.9114 139.945 86.339 137.387 86.339C137.03 86.339 136.741 86.6286 136.741 86.9858C136.741 87.3429 137.03 87.6325 137.387 87.6325C140.099 87.6325 142.75 87.1779 144.865 86.3586L145.402 86.145C150.945 83.9139 152.707 82.4139 155.258 78.2085L155.42 77.9393C156.236 76.5725 157.687 73.8245 159.608 70.051L160.171 68.9407C161.048 67.2098 161.965 65.3803 162.885 63.531L163.675 61.94L165.101 59.0508C165.267 58.7112 165.108 58.305 164.762 58.166L164.726 58.1526L160.157 56.622Z" fill="var(--color-typo-primary)"/>
<path fill-rule="evenodd" clip-rule="evenodd" d="M163.96 60.7279C163.96 60.7279 168.076 55.9419 171.05 50.229C173.852 44.861 172.688 38.1994 168.054 34.3189C164.175 31.0636 160.468 31.926 160.468 31.926C160.468 31.926 167.171 25.1135 161.891 16.2746C160.037 13.1702 156.955 10.9281 153.399 10.152C144.736 8.2549 140.253 14.8518 140.253 14.8518C140.253 14.8518 135.275 -4.37828 113.896 0.925068C111.741 1.46403 108.896 3.74921 107.388 5.38764C98.2714 15.326 115.426 34.0818 125.857 37.8329C137.301 41.9721 144.671 41.7566 149.175 39.8163C145.921 40.808 145.813 59.0679 163.96 60.7279Z" fill="var(--color-typo-primary)"/>
<path fill-rule="evenodd" clip-rule="evenodd" d="M131.225 53.9709C130.794 53.8082 130.313 54.0145 130.131 54.4327L130.115 54.4738L126.063 65.2314C125.855 65.7846 126.251 66.3741 126.834 66.3971L126.874 66.3978L131.034 66.3762C131.51 66.3737 131.894 65.9857 131.891 65.5094C131.889 65.0476 131.524 64.6725 131.068 64.6524L131.025 64.6516L128.118 64.6666L131.728 55.0819C131.891 54.6501 131.684 54.1698 131.266 53.9876L131.225 53.9709Z" fill="var(--color-typo-primary)"/>
<path fill-rule="evenodd" clip-rule="evenodd" d="M133.141 74.8483C132.01 74.8483 131.094 73.9313 131.094 72.8002C131.094 71.6691 132.01 70.7522 133.141 70.7522C134.272 70.7522 135.188 71.6691 135.188 72.8002C135.188 73.9313 134.272 74.8483 133.141 74.8483Z" fill="var(--color-typo-primary)"/>
<path fill-rule="evenodd" clip-rule="evenodd" d="M126.136 55.6467C125.512 55.4907 125.204 54.5777 125.446 53.6074C125.689 52.6372 126.391 51.9772 127.015 52.1332C127.638 52.2893 127.947 53.2023 127.704 54.1725C127.462 55.1428 126.759 55.8028 126.136 55.6467Z" fill="var(--color-typo-primary)"/>
<path fill-rule="evenodd" clip-rule="evenodd" d="M137.104 58.1931C136.48 58.037 136.171 57.124 136.414 56.1538C136.657 55.1835 137.359 54.5235 137.982 54.6796C138.606 54.8356 138.915 55.7486 138.672 56.7189C138.429 57.6891 137.727 58.3491 137.104 58.1931Z" fill="var(--color-typo-primary)"/>
<path fill-rule="evenodd" clip-rule="evenodd" d="M140.335 45.5764C139.861 45.5308 139.44 45.8782 139.395 46.3522C139.349 46.8263 139.696 47.2476 140.17 47.2931C141.353 47.4069 142.275 47.8815 142.989 48.6087C143.279 48.9041 143.514 49.2213 143.697 49.5367L143.746 49.6234C143.814 49.747 143.858 49.8405 143.88 49.8933L143.886 49.9093C144.055 50.3547 144.553 50.579 144.998 50.4103C145.443 50.2416 145.667 49.7437 145.499 49.2984C145.445 49.1565 145.344 48.9393 145.189 48.6714C144.937 48.237 144.616 47.8045 144.219 47.4001C143.232 46.3955 141.941 45.7309 140.335 45.5764Z" fill="var(--color-typo-primary)"/>
<path fill-rule="evenodd" clip-rule="evenodd" d="M129.55 42.5766C128.766 42.3042 127.955 42.1861 127.162 42.3213C126.183 42.488 125.353 43.0327 124.776 43.9813C124.528 44.388 124.657 44.9186 125.063 45.1663C125.47 45.4141 126 45.2852 126.248 44.8784C126.561 44.3649 126.955 44.106 127.452 44.0215C127.915 43.9425 128.451 44.0206 128.985 44.2059C129.123 44.254 129.25 44.3053 129.36 44.3559L129.457 44.402L129.475 44.4112C129.893 44.6388 130.416 44.4842 130.644 44.0659C130.872 43.6475 130.717 43.1239 130.299 42.8963L130.225 42.8573C130.064 42.776 129.835 42.6754 129.55 42.5766Z" fill="var(--color-typo-primary)"/>
<path fill-rule="evenodd" clip-rule="evenodd" d="M2.36886 121.393H86.1601C87.2592 121.393 88.2075 122.148 88.4661 123.226L100.125 172.551H130.491C130.491 172.551 132.172 181.239 122.366 181.239C117.388 181.239 15.3858 181.239 15.3858 181.239C14.2867 181.239 13.3384 180.485 13.0798 179.407L0.0628924 124.304C-0.281927 122.816 0.838727 121.393 2.36886 121.393Z" fill="var(--color-typo-primary)"/>
<path fill-rule="evenodd" clip-rule="evenodd" d="M138.948 75.7675C138.009 74.487 136.329 74.8269 134.616 76.598C132.949 78.3251 131.877 80.6168 131.284 83.1064C131.202 83.4538 131.416 83.8026 131.763 83.8853C132.111 83.9681 132.459 83.7534 132.542 83.406C133.086 81.1226 134.063 79.0329 135.546 77.4971C136.779 76.2218 137.562 76.0635 137.906 76.5325C138.325 77.1037 138.269 78.4035 137.649 79.6493L137.61 79.7255C136.711 81.4668 136.459 84.8964 136.59 89.1401C136.601 89.4971 136.9 89.7775 137.256 89.7665C137.613 89.7554 137.894 89.457 137.883 89.1L137.87 88.6475C137.779 84.902 138.024 81.8105 138.73 80.3762L138.759 80.3198C139.619 78.6569 139.711 76.8072 138.948 75.7675Z" fill="var(--color-typo-primary)"/>
<path fill-rule="evenodd" clip-rule="evenodd" d="M110.103 72.7573C113.567 72.7573 116.375 75.5661 116.375 79.0308C116.375 82.4955 113.567 85.3043 110.103 85.3043C106.64 85.3043 103.832 82.4955 103.832 79.0308C103.832 75.5661 106.64 72.7573 110.103 72.7573ZM110.103 74.0508C107.354 74.0508 105.125 76.2804 105.125 79.0308C105.125 81.7811 107.354 84.0108 110.103 84.0108C112.853 84.0108 115.081 81.7811 115.081 79.0308C115.081 76.2804 112.853 74.0508 110.103 74.0508Z" fill="var(--color-typo-primary)"/>
<path fill-rule="evenodd" clip-rule="evenodd" d="M143.671 99.6119C143.398 99.4152 143.023 99.4606 142.805 99.7103L142.688 99.8579C142.61 99.9565 142.517 100.071 142.41 100.201C142.103 100.573 141.747 100.989 141.346 101.437C140.201 102.717 138.928 103.998 137.564 105.191C134.287 108.058 131.025 109.958 127.995 110.449C127.745 110.49 127.542 110.673 127.475 110.917L127.461 110.972C127.439 111.065 127.414 111.201 127.39 111.381C127.263 112.336 127.284 113.652 127.544 115.35L127.568 115.501C127.702 116.345 127.497 116.937 126.817 117.98L126.477 118.494C125.983 119.248 125.74 119.71 125.557 120.324C125.295 121.207 125.305 122.141 125.624 123.191L125.628 123.21C125.706 123.642 126.348 129.887 126.655 132.572L126.683 132.815C127.497 139.824 128.475 146.366 129.736 152.561C131.399 160.73 133.416 167.534 135.856 172.614C138.796 178.737 142.292 182.219 146.455 182.53C146.811 182.557 147.121 182.29 147.148 181.934C147.175 181.577 146.907 181.267 146.551 181.24C143 180.975 139.846 177.866 137.104 172.225L137.021 172.053C134.636 167.087 132.647 160.376 131.003 152.303C129.784 146.315 128.831 139.992 128.033 133.23L127.914 132.2C127.616 129.547 126.969 123.269 126.867 122.833L126.863 122.821C126.427 121.388 126.648 120.589 127.615 119.118L127.841 118.776C128.728 117.435 129.046 116.563 128.845 115.298C128.597 113.741 128.562 112.55 128.654 111.701L128.661 111.642L128.78 111.618C131.871 110.962 135.072 109.062 138.265 106.295L138.415 106.165C139.822 104.934 141.131 103.617 142.31 102.299C142.648 101.922 142.955 101.566 143.23 101.238L143.398 101.035L143.691 101.269C144.256 101.724 144.976 102.323 145.868 103.086C146.436 103.572 147.057 103.829 147.759 103.909L147.865 103.92C148.302 103.961 148.674 103.937 149.42 103.851L149.511 103.841C151.274 103.633 152 103.774 152.95 104.84L153 104.896C153.61 105.593 156.731 110.594 161.494 118.445L163.002 120.936L163.619 121.957C165.066 124.353 166.569 126.852 168.083 129.377L171.787 135.568L172.736 137.159C172.919 137.466 173.315 137.567 173.622 137.384C173.918 137.208 174.022 136.833 173.866 136.532L172.778 134.706L170.818 131.425C168.866 128.165 166.908 124.904 165.037 121.803L162.732 117.992C157.785 109.834 154.665 104.834 153.973 104.044C153.243 103.207 152.453 102.733 151.567 102.55C150.978 102.429 150.512 102.431 149.66 102.522L149.183 102.576C147.859 102.721 147.34 102.643 146.708 102.102L146.167 101.642C145.509 101.085 144.957 100.628 144.502 100.261L144.164 99.9914C144.081 99.9263 144.006 99.8674 143.938 99.8146L143.715 99.6444C143.696 99.6306 143.681 99.6198 143.671 99.6119Z" fill="var(--color-typo-primary)"/>
<path fill-rule="evenodd" clip-rule="evenodd" d="M127.538 115.313C126.999 112.101 126.784 110.721 126.784 110.721C135.016 109.449 143.486 99.1013 143.486 99.1013C143.486 99.1013 144.326 99.7265 146.697 101.775C147.645 102.594 148.637 102.594 149.671 102.486C150.404 111.476 134.262 119.474 126.633 119.862C127.107 117.706 127.948 117.749 127.538 115.313Z" fill="var(--color-typo-primary)"/>
<path fill-rule="evenodd" clip-rule="evenodd" d="M174.387 126.323C171.973 126.017 169.847 126.578 168.152 128.164C167.891 128.408 167.877 128.817 168.121 129.078C168.365 129.339 168.774 129.353 169.035 129.109C170.428 127.805 172.17 127.346 174.225 127.607C176.09 127.843 178.117 128.658 180.173 129.872C181.049 130.39 181.871 130.946 182.613 131.501L182.802 131.643C182.924 131.737 183.039 131.826 183.146 131.911L183.301 132.035C183.356 132.08 183.405 132.12 183.449 132.156L183.537 132.23C183.808 132.464 184.216 132.434 184.449 132.163C184.682 131.893 184.652 131.484 184.382 131.251L184.292 131.175C184.255 131.144 184.209 131.106 184.156 131.063L183.95 130.898C183.78 130.763 183.592 130.618 183.387 130.465C182.61 129.883 181.75 129.302 180.83 128.759C178.636 127.462 176.455 126.585 174.387 126.323Z" fill="var(--color-typo-primary)"/>
<path fill-rule="evenodd" clip-rule="evenodd" d="M120.417 75.9934L120.474 76C121.34 76.1247 123.727 77.4826 127.089 79.651L127.777 80.0973C130.834 82.0905 133.84 84.2062 134.838 85.0753L134.892 85.1246C135.786 85.9661 137.802 89.2817 140.755 94.5773L140.941 94.9109C141.114 95.2219 141.289 95.5382 141.467 95.8594L141.989 96.8084C142.953 98.563 143.945 100.396 144.933 102.24L145.79 103.847C146.104 104.436 146.399 104.993 146.672 105.51L147.248 106.606C147.409 106.912 147.3 107.291 147 107.465L130.708 116.929L130.672 116.948C130.341 117.114 129.934 116.968 129.787 116.622L121.807 97.7402L121.697 97.7381C118.325 97.661 116.07 96.7677 115.052 95.3277C114.073 93.9423 114.543 92.1691 116 92.054L116.039 92.0512C116.229 92.0387 116.481 92.0385 116.792 92.05L116.99 92.0583L116.966 92.0505C115.008 91.4001 113.83 90.4099 113.456 89.2036C113.035 87.8416 113.835 86.4157 115.041 86.3403L115.069 86.3384C115.357 86.3222 115.881 86.3813 116.626 86.5085L116.744 86.5288L116.701 86.5057C115.626 85.9162 114.919 85.03 114.691 84.0308C114.401 82.7618 114.975 81.559 116.145 81.251L116.181 81.2426C116.854 81.0957 118.623 81.4429 121.058 82.1254L121.319 82.1988L121.2 82.1302C120.44 81.6881 119.792 81.2923 119.273 80.9507C117.855 80.0168 117.368 78.7493 117.865 77.5835C118.289 76.5873 119.376 75.9042 120.417 75.9934ZM119.054 78.0903C118.82 78.6406 119.058 79.2603 119.984 79.8702L120.155 79.9815C120.77 80.3784 121.562 80.8517 122.5 81.3853L122.968 81.6505C123.081 81.7139 123.196 81.778 123.312 81.8426C124.22 82.3487 125.186 82.8715 126.159 83.387L126.807 83.7285L127.827 84.2596L127.984 84.3404C128.699 84.7067 128.237 85.7902 127.478 85.5273L126.998 85.3623C121.848 83.5987 117.202 82.3127 116.473 82.5023C116.04 82.6162 115.806 83.1056 115.952 83.7427C116.134 84.5435 116.847 85.279 118.016 85.6733L118.122 85.7081L126.893 88.8341C127.654 89.1054 127.326 90.2335 126.557 90.0792L126.487 90.0628L125.268 89.7613L124.965 89.6871C123.786 89.3993 122.58 89.1115 121.418 88.843L120.909 88.7258L120.185 88.5618C117.467 87.9518 115.571 87.5961 115.132 87.6305C114.815 87.6504 114.502 88.2081 114.692 88.8209C114.998 89.8103 116.353 90.7192 118.918 91.2209L119.778 91.3852C124.319 92.2647 125.939 92.8423 126.189 93.4061C126.39 93.8586 126.03 94.3549 125.545 94.3134L124.378 94.1567C123.511 94.0421 122.61 93.9274 121.723 93.8205L121.268 93.7662L120.249 93.6493C118.151 93.4158 116.655 93.2997 116.102 93.3434C115.792 93.3679 115.644 93.9248 116.108 94.5807C116.896 95.6963 118.942 96.4588 122.235 96.4498L122.278 96.4511C122.521 96.4666 122.736 96.618 122.832 96.8447L130.693 115.442L145.815 106.657L144.752 104.649C144.615 104.391 144.474 104.126 144.33 103.856L143.793 102.851C142.629 100.676 141.458 98.5172 140.335 96.4851L139.811 95.5396L139.285 94.5975C136.586 89.7821 134.651 86.6283 133.988 86.0505C131.634 83.9992 121.444 77.3796 120.306 77.2821C119.833 77.2415 119.264 77.5992 119.054 78.0903Z" fill="var(--color-typo-primary)"/>
<path fill-rule="evenodd" clip-rule="evenodd" d="M6.23349 181.131C5.87641 181.131 5.58694 181.421 5.58694 181.778C5.58694 182.122 5.85609 182.404 6.19548 182.424L6.23349 182.425H228.154C228.511 182.425 228.8 182.135 228.8 181.778C228.8 181.434 228.531 181.152 228.192 181.132L228.154 181.131H6.23349Z" fill="var(--color-typo-primary)"/>
<path fill-rule="evenodd" clip-rule="evenodd" d="M110.19 89.9396L111.375 71.4857L135.167 73.0163L134.349 85.4986C132.237 83.6877 121.849 76.7459 120.34 76.6165C118.832 76.4872 117.021 78.6861 119.607 80.3893C122.194 82.0924 127.668 84.8949 127.668 84.8949C123.12 83.2996 117.366 81.575 116.289 81.8552C114.651 82.2864 114.758 85.3046 117.883 86.2962L126.655 89.4222C126.655 89.4222 116.439 86.8568 115.06 86.9645C113.681 87.0723 112.474 90.651 118.896 91.8583C125.319 93.0871 125.577 93.6476 125.577 93.6476C125.577 93.6476 117.668 92.5266 116.03 92.6775C114.392 92.8284 114.349 97.097 122.215 97.0754L122.258 97.1832L116.202 96.7952C112.668 96.5796 109.952 93.4967 110.19 89.9396Z" fill="var(--color-typo-primary)"/>
</svg>
