<svg width="198" height="243" viewBox="0 0 198 243" fill="none" xmlns="http://www.w3.org/2000/svg">
<path fill-rule="evenodd" clip-rule="evenodd" d="M0.000257459 140.013C-0.145066 113.564 38.4625 104.457 38.4625 104.457C35.556 91.3299 36.8639 58.826 91.8929 68.7564C120.086 73.649 128.03 88.4235 122.023 100.388C132.971 105.814 160.34 145.051 160.34 145.051L159.807 178.766C161.842 178.33 163.973 178.088 166.153 178.088C183.446 177.991 197.591 191.99 197.64 209.332C197.737 226.626 182.284 242.127 164.942 242.224C162.859 242.224 160.824 242.03 158.838 241.594V242.224L9.30094 241.836C9.30094 241.836 8.57432 211.851 12.159 180.074C5.91007 165.687 0.000257459 149.605 0.000257459 140.013Z" fill="var(--color-typo-link-hover)"/>
<path fill-rule="evenodd" clip-rule="evenodd" d="M62.6832 88.3266L52.7044 93.8489C52.7044 93.8489 78.6687 105.039 83.3675 156.822C86.4193 190.44 83.9973 242.902 83.9973 242.902L101.145 242.66C101.145 242.66 96.5435 138.657 104.003 121.702C111.463 104.797 103.228 103.731 99.4499 100.195C95.6231 96.7069 62.6832 88.3266 62.6832 88.3266Z" fill="var(--color-bg-default)"/>
<path fill-rule="evenodd" clip-rule="evenodd" d="M171.724 231.373C157.973 231.373 146.825 220.225 146.825 206.474C146.825 192.723 157.973 181.576 171.724 181.576C185.475 181.576 196.623 192.723 196.623 206.474C196.623 220.225 185.475 231.373 171.724 231.373Z" fill="var(--color-typo-primary)"/>
<path fill-rule="evenodd" clip-rule="evenodd" d="M80.9455 230.21C68.9868 230.21 59.2923 220.516 59.2923 208.557C59.2923 196.599 68.9868 186.904 80.9455 186.904C92.9042 186.904 102.599 196.599 102.599 208.557C102.599 220.516 92.9042 230.21 80.9455 230.21Z" fill="var(--color-typo-primary)"/>
<path fill-rule="evenodd" clip-rule="evenodd" d="M63.1674 135.072C58.8562 133.135 45.1473 117.44 38.4625 104.361C32.8918 104.264 24.8506 108.091 21.3628 110.803C37.203 135.799 63.2159 135.072 63.1674 135.072Z" fill="var(--color-typo-primary)"/>
<path fill-rule="evenodd" clip-rule="evenodd" d="M64.2308 177.917C61.3135 177.216 58.0347 176.955 54.5457 177.39C49.8638 177.975 45.2962 179.768 41.022 183.013C37.5804 185.627 34.4123 189.125 31.5698 193.583C31.1382 194.259 31.3369 195.158 32.0136 195.589C32.6903 196.021 33.5887 195.822 34.0203 195.145C36.6825 190.971 39.6188 187.728 42.7796 185.328C46.6356 182.4 50.7196 180.797 54.9055 180.275C58.022 179.886 60.9553 180.119 63.5517 180.743C64.0686 180.867 64.5332 180.998 64.9407 181.13L65.1118 181.186C65.3696 181.272 65.5382 181.336 65.6108 181.366C66.3513 181.676 67.2025 181.326 67.5118 180.586C67.8212 179.845 67.4716 178.994 66.731 178.685L66.556 178.614C66.0534 178.419 65.266 178.166 64.2308 177.917Z" fill="var(--color-typo-primary)"/>
<path fill-rule="evenodd" clip-rule="evenodd" d="M64.3029 176.114C60.355 173.892 55.8218 172.708 50.8169 173.119C44.3483 173.65 37.6759 176.829 30.9315 183.129C30.3449 183.677 30.3136 184.597 30.8615 185.183C31.4094 185.77 32.329 185.801 32.9155 185.253C39.2006 179.382 45.2693 176.491 51.0548 176.016C55.4361 175.656 59.4052 176.693 62.8775 178.647C63.9279 179.238 64.851 179.87 65.6365 180.5L65.895 180.711C66.0179 180.813 66.1312 180.911 66.2348 181.003L66.4539 181.204L66.5403 181.287C67.1033 181.859 68.0234 181.866 68.5954 181.303C69.1675 180.74 69.1748 179.82 68.6118 179.248L68.5086 179.146C68.2812 178.926 67.9279 178.611 67.4536 178.231C66.5495 177.507 65.4969 176.786 64.3029 176.114Z" fill="var(--color-typo-primary)"/>
<path fill-rule="evenodd" clip-rule="evenodd" d="M12.4454 180.176C11.7002 180.385 11.2542 181.138 11.4174 181.885L11.4442 181.989L11.5871 182.475L11.7474 182.998C11.8534 183.338 11.9719 183.708 12.1029 184.108L12.183 184.351C12.8031 186.221 13.5589 188.303 14.4549 190.543C17.0147 196.944 20.188 203.345 24.0142 209.329C30.1381 218.905 37.347 226.483 45.7296 231.299C55.8173 237.093 67.1685 238.611 79.7524 235.106L80.1325 235L80.3243 234.949C80.4239 234.921 80.5422 234.888 80.678 234.848L80.7832 234.817C81.3151 234.659 81.9052 234.466 82.5394 234.235C84.351 233.575 86.1636 232.747 87.865 231.73C90.2293 230.318 92.1901 228.654 93.6031 226.703C94.0738 226.053 93.9285 225.144 93.2784 224.674C92.6283 224.203 91.7198 224.348 91.249 224.998C90.0925 226.595 88.4252 228.01 86.3745 229.235C84.8449 230.149 83.1956 230.903 81.5454 231.503C81.0505 231.684 80.5867 231.838 80.1634 231.968L79.781 232.082C79.6199 232.129 79.4984 232.162 79.4209 232.182L79.3349 232.204C67.3617 235.628 56.6925 234.244 47.1773 228.778C39.2495 224.224 32.3545 216.976 26.4628 207.763C22.7437 201.947 19.6497 195.706 17.1536 189.464C16.3383 187.425 15.6428 185.524 15.0641 183.802L14.9419 183.436C14.7843 182.961 14.6448 182.526 14.5229 182.135L14.3363 181.524L14.2368 181.184C14.0203 180.411 13.2183 179.96 12.4454 180.176Z" fill="var(--color-typo-primary)"/>
<path fill-rule="evenodd" clip-rule="evenodd" d="M51.9204 146.706C51.1757 147.005 50.8146 147.852 51.1139 148.596L51.6778 149.986C52.1278 151.088 52.6339 152.316 53.1849 153.639L53.9755 155.527C55.2979 158.671 56.6409 161.786 57.9529 164.728L58.4974 165.943C58.6773 166.342 58.8556 166.735 59.0323 167.123L59.2959 167.7C60.2865 169.861 61.2122 171.807 62.0604 173.503C62.1983 173.781 62.3374 174.057 62.4774 174.332C64.5252 178.356 66.7192 182.02 68.9149 185.256C69.6851 186.391 70.4014 187.392 71.0457 188.251L71.3672 188.675L71.7465 189.163C71.8037 189.236 71.8467 189.289 71.8746 189.324C72.3814 189.946 73.2968 190.039 73.9191 189.533C74.5174 189.045 74.627 188.18 74.1839 187.561L74.1281 187.488C74.0978 187.451 74.0338 187.371 73.9381 187.249L73.6739 186.907C73.5792 186.783 73.4781 186.65 73.3707 186.507L73.0269 186.044C72.5008 185.329 71.9284 184.521 71.3198 183.624C69.1895 180.485 67.0575 176.924 65.0678 173.014L64.8643 172.612L64.6614 172.206C63.8279 170.539 62.9158 168.622 61.938 166.489L61.4132 165.337C61.1483 164.752 60.8795 164.154 60.6073 163.544C59.1741 160.331 57.7018 156.905 56.2602 153.461L55.3869 151.363C55.1267 150.735 54.8786 150.132 54.6439 149.56L53.8107 147.512C53.5114 146.768 52.6651 146.407 51.9204 146.706Z" fill="var(--color-typo-primary)"/>
<circle r="59.7073" transform="matrix(-1 0 0 1 124.716 164.744)" fill="var(--color-typo-primary)"/>
<circle cx="124.715" cy="165.334" r="53.7961" fill="var(--color-bg-default)"/>
<circle cx="84.6202" cy="158.37" r="8.13385" fill="var(--color-typo-primary)"/>
<circle cx="94.9302" cy="189.497" r="8.13385" fill="var(--color-typo-primary)"/>
<circle cx="130.559" cy="206.198" r="8.13385" fill="var(--color-typo-primary)"/>
<circle cx="124.716" cy="135.03" r="8.13385" fill="var(--color-typo-primary)"/>
<circle cx="158.291" cy="147.653" r="8.13385" fill="var(--color-typo-primary)"/>
<line x1="146.854" y1="112.779" x2="109.945" y2="219.62" stroke="var(--color-typo-primary)" stroke-width="3"/>
<line x1="79.3343" y1="131.791" x2="167.334" y2="198.83" stroke="var(--color-typo-primary)" stroke-width="3"/>
<line x1="70.5516" y1="180.462" x2="182.218" y2="156.155" stroke="var(--color-typo-primary)" stroke-width="3"/>
<path fill-rule="evenodd" clip-rule="evenodd" d="M61.9078 67.3516L62.6344 90.3127C62.5375 93.3645 63.8939 96.2709 66.219 98.257C70.6756 101.939 78.8137 109.253 89.0348 120.831C89.0348 120.831 101.823 107.219 103.955 86.0014L61.9078 67.3516Z" fill="var(--color-bg-default)"/>
<path fill-rule="evenodd" clip-rule="evenodd" d="M62.4973 66.0232L104.544 84.673C105.118 84.9276 105.464 85.522 105.401 86.1467C104.522 94.8966 101.842 103.008 97.9266 110.34C96.2256 113.526 94.4021 116.351 92.5758 118.787C91.9981 119.557 91.4562 120.24 90.961 120.832L90.6409 121.21C90.3923 121.499 90.2072 121.705 90.0942 121.826C89.508 122.45 88.5123 122.434 87.9457 121.792C79.4008 112.114 71.6397 104.62 65.2938 99.3774L65.1299 99.2349C62.5852 96.9818 61.1357 93.797 61.1775 90.4786L61.181 90.3195L60.4556 67.3976C60.4217 66.327 61.5182 65.5889 62.4973 66.0232ZM63.434 69.6182L64.0872 90.2668L64.0872 90.3588C64.0056 92.9297 65.1422 95.4258 67.1632 97.152L67.4711 97.4073C73.3424 102.289 80.373 109.033 88.0808 117.578L89.0171 118.622L89.0478 118.584C89.4232 118.124 89.8258 117.61 90.2503 117.043C91.9911 114.722 93.7346 112.02 95.3628 108.971L95.5862 108.549C98.9893 102.068 101.38 94.9649 102.34 87.3521L102.395 86.8991L63.434 69.6182Z" fill="var(--color-typo-primary)"/>
<path fill-rule="evenodd" clip-rule="evenodd" d="M58.808 55.532C58.808 55.532 48.6838 55.7742 50.5245 64.8327C52.3653 73.8911 63.5552 68.6111 63.5552 68.6111L62.0051 55.7257L58.808 55.532Z" fill="var(--color-bg-default)"/>
<path fill-rule="evenodd" clip-rule="evenodd" d="M58.7642 54.0795C58.8081 54.0781 58.8519 54.0788 58.8957 54.0815L62.0928 54.2752C62.7936 54.3177 63.3639 54.8551 63.4477 55.5522L64.9978 68.4375C65.0726 69.0589 64.7412 69.6583 64.1752 69.9254L63.9878 70.0112C63.5178 70.2208 62.8202 70.4927 61.9583 70.7628C60.2537 71.2969 58.5372 71.6122 56.8956 71.5934C52.8977 71.5475 49.9893 69.4971 49.1003 65.1221C48.1768 60.5779 49.8182 57.3799 53.1468 55.5801C54.279 54.9679 55.5263 54.5616 56.8126 54.3153C57.2705 54.2276 57.7063 54.1659 58.1107 54.1255L58.3271 54.1057C58.3948 54.1001 58.4581 54.0954 58.5166 54.0916L58.7642 54.0795ZM60.7072 57.103L58.7904 56.9867L58.6781 56.9929C58.3568 57.0132 57.8991 57.0665 57.3593 57.1699C56.3444 57.3642 55.3723 57.6808 54.5292 58.1367C52.2899 59.3475 51.289 61.2977 51.9485 64.5433C52.5445 67.4765 54.2176 68.656 56.9289 68.6871C58.2233 68.7019 59.6529 68.4393 61.0893 67.9892L61.3339 67.9108C61.4948 67.858 61.6514 67.8041 61.8033 67.7497L61.9802 67.6849L60.7072 57.103Z" fill="var(--color-typo-primary)"/>
<path fill-rule="evenodd" clip-rule="evenodd" d="M87.5815 26.758C90.2457 26.5158 108.556 25.3048 110.639 40.5637C112.722 55.8226 110.639 72.7285 108.944 80.4307C107.297 88.1328 72.1772 84.7419 70.1911 84.0637C68.205 83.3856 65.8314 81.0604 65.8314 81.0604L60.9389 57.6149C60.9389 57.6149 58.8559 29.2769 87.5815 26.758Z" fill="var(--color-bg-default)"/>
<path fill-rule="evenodd" clip-rule="evenodd" d="M92.078 25.2153C94.7222 25.3284 97.3185 25.7168 99.7522 26.4578C106.545 28.5257 111.075 33.0059 112.08 40.3672C113.866 53.4515 112.78 69.7658 110.364 80.7431C109.418 85.1647 102.05 86.7709 90.0646 86.8414L89.2262 86.8436C81.4392 86.835 71.388 86.0079 69.7221 85.4391C69.3792 85.322 69.0287 85.1681 68.6691 84.9809C68.0784 84.6734 67.4706 84.2802 66.8517 83.8206C66.3461 83.4451 65.8604 83.0458 65.4094 82.6464L65.0883 82.3568C64.9728 82.2504 64.8807 82.1629 64.8151 82.0986C64.6094 81.8971 64.4682 81.6391 64.4094 81.3573L59.5169 57.9119C59.5038 57.8491 59.4948 57.7855 59.4901 57.7215L59.475 57.4493L59.471 57.3536C59.4599 57.0751 59.4532 56.7541 59.4528 56.394C59.4517 55.3748 59.5006 54.2388 59.616 53.0118C59.9457 49.5061 60.7428 45.9573 62.1464 42.5742C66.1445 32.9378 74.167 26.5893 87.0628 25.3465L87.4551 25.3104C88.7457 25.1931 90.2943 25.1391 92.078 25.2153ZM87.7136 28.2053C75.6997 29.2588 68.4673 34.9234 64.8309 43.6881C63.5483 46.7795 62.8138 50.0495 62.5096 53.2839C62.415 54.2902 62.369 55.2274 62.3606 56.0766L62.3592 56.3909C62.3596 56.7131 62.3656 56.9968 62.3751 57.2386L62.3839 57.4222L67.1607 80.3125L67.3361 80.4704C67.7286 80.818 68.1514 81.1656 68.5845 81.4872C69.0888 81.8617 69.5718 82.1742 70.0112 82.4029C70.2478 82.5261 70.4662 82.6219 70.6613 82.6885C71.9419 83.1258 81.9588 83.9448 89.4638 83.9371L89.6905 83.9367C100.137 83.9024 107.029 82.4395 107.523 80.1269C109.873 69.4545 110.936 53.477 109.2 40.7603C108.363 34.6315 104.691 30.9995 98.9057 29.2382C96.7285 28.5754 94.3692 28.2225 91.9538 28.1192C90.3113 28.0489 88.8885 28.0985 87.7136 28.2053Z" fill="var(--color-typo-primary)"/>
<path fill-rule="evenodd" clip-rule="evenodd" d="M64.1276 57.4212C65.8128 59.1166 70.2597 68.8048 71.3831 73.3099C71.3831 73.3099 82.3833 69.4346 98.158 69.1439C98.158 69.1439 106.771 69.2893 110.188 70.3065C110.188 70.3065 109.533 86.3405 102.558 94.6724C95.6303 103.004 80.8854 100.727 73.9576 95.7865C67.0298 90.8455 65.8596 88.4719 64.2681 83.095C62.6298 77.7664 58.3233 57.8572 58.3233 57.8572L64.1276 57.4212Z" fill="var(--color-bg-default)" stroke="var(--color-typo-primary)" stroke-width="3"/>
<path fill-rule="evenodd" clip-rule="evenodd" d="M59.6797 60.8605C59.6797 60.8605 54.8841 53.4975 52.9949 45.8438C51.251 38.6261 54.545 31.0693 61.2298 27.8237C66.8006 25.111 70.9665 27.194 70.9665 27.194C70.9665 27.194 65.0082 17.1183 73.873 8.15667C76.9732 5.008 81.3329 3.26413 85.741 3.36101C96.5918 3.65165 99.9827 12.807 99.9827 12.807C99.9827 12.807 111.512 -8.60393 135.393 3.9423C137.815 5.20177 140.528 8.73796 141.836 11.16C149.78 25.6439 123.913 42.9373 110.397 44.3421C95.5745 45.8922 86.8551 43.4702 82.1079 39.8855C85.6926 41.9685 81.7688 64.2029 59.6797 60.8605Z" fill="var(--color-typo-primary)"/>
<path fill-rule="evenodd" clip-rule="evenodd" d="M90.3209 79.3963C89.8513 78.4851 88.7443 78.0927 87.7999 78.5203C86.8251 78.9617 86.3926 80.1099 86.8341 81.0847L86.9066 81.2364C86.9898 81.4028 87.1054 81.612 87.255 81.8531C87.5762 82.3706 87.9651 82.8858 88.4296 83.3716C90.5607 85.6002 93.5009 86.4527 96.9438 85.0313C97.933 84.623 98.4038 83.4901 97.9954 82.5009C97.5871 81.5118 96.4542 81.0409 95.465 81.4493C93.6148 82.2132 92.3266 81.8396 91.2304 80.6933C90.964 80.4147 90.7348 80.111 90.5477 79.8096L90.4605 79.6637L90.3643 79.4861L90.3209 79.3963Z" fill="var(--color-typo-primary)"/>
<path fill-rule="evenodd" clip-rule="evenodd" d="M101.332 62.5309C101.077 61.4915 100.028 60.8553 98.989 61.1099C97.9821 61.3566 97.3536 62.3488 97.5468 63.3555L97.568 63.453L99.993 73.351L96.0087 73.7558C94.9763 73.8606 94.2159 74.7578 94.2693 75.7828L94.2767 75.8793C94.3816 76.9117 95.2788 77.6721 96.3038 77.6186L96.4003 77.6112L102.601 76.9815C103.739 76.8659 104.522 75.7976 104.308 74.6879L104.287 74.5927L101.332 62.5309Z" fill="var(--color-typo-primary)"/>
<path fill-rule="evenodd" clip-rule="evenodd" d="M104.022 61.1289C104.017 59.8982 104.663 58.8978 105.466 58.8943C106.268 58.8909 106.923 59.8857 106.928 61.1164C106.934 62.347 106.287 63.3475 105.485 63.3509C104.682 63.3544 104.027 62.3595 104.022 61.1289Z" fill="var(--color-typo-primary)"/>
<path fill-rule="evenodd" clip-rule="evenodd" d="M90.2514 60.9681C90.2461 59.7374 90.8925 58.737 91.6951 58.7335C92.4977 58.7301 93.1526 59.7249 93.1579 60.9556C93.1632 62.1862 92.5168 63.1866 91.7142 63.1901C90.9117 63.1936 90.2567 62.1987 90.2514 60.9681Z" fill="var(--color-typo-primary)"/>
<path fill-rule="evenodd" clip-rule="evenodd" d="M91.0529 48.4306C88.606 48.0811 86.4785 48.7187 84.7491 49.983C84.2616 50.3394 83.841 50.7218 83.4844 51.1087L83.326 51.2856C83.1793 51.4546 83.0675 51.5987 82.9899 51.7098C82.3772 52.5872 82.5916 53.7951 83.469 54.4079C84.318 55.0008 85.4767 54.8191 86.1059 54.0116L86.1855 53.9051C86.2108 53.8738 86.2607 53.8146 86.3342 53.7349C86.5271 53.5255 86.7624 53.3116 87.0362 53.1114C87.9547 52.4399 89.0356 52.0995 90.3342 52.2452L90.5049 52.267C91.5643 52.4183 92.5457 51.6822 92.6971 50.6228C92.8484 49.5634 92.1123 48.582 91.0529 48.4306Z" fill="var(--color-typo-primary)"/>
<path fill-rule="evenodd" clip-rule="evenodd" d="M106.97 48.1365C105.969 47.8966 104.962 47.9074 104.01 48.0618L103.8 48.0987C103.636 48.1295 103.503 48.1602 103.404 48.1867C102.371 48.464 101.758 49.5267 102.035 50.5603C102.304 51.5616 103.309 52.1682 104.312 51.9531L104.464 51.9173C104.503 51.9094 104.559 51.8987 104.631 51.8871C105.119 51.808 105.638 51.8023 106.067 51.9051C106.559 52.023 106.841 52.2428 107.015 52.7242L107.047 52.8176C107.367 53.8387 108.454 54.407 109.475 54.087C110.496 53.7669 111.065 52.6797 110.745 51.6585C110.141 49.7318 108.752 48.5635 106.97 48.1365Z" fill="var(--color-typo-primary)"/>
<path fill-rule="evenodd" clip-rule="evenodd" d="M181.267 206.038C181.218 205.844 170.561 193.395 170.222 193.686C169.883 193.976 155.302 200.468 154.963 201C154.624 201.485 154.091 204.44 155.544 207.152C156.998 209.865 158.645 216.114 165.233 216.598C171.821 217.083 181.267 206.038 181.267 206.038Z" fill="var(--color-bg-default)"/>
<path fill-rule="evenodd" clip-rule="evenodd" d="M161.842 196.544C161.842 196.544 160.582 187.97 162.568 185.935C164.554 183.901 175.647 202.89 179.474 204.197" fill="var(--color-bg-default)"/>
<path fill-rule="evenodd" clip-rule="evenodd" d="M164.683 184.989C163.581 184.204 162.452 183.974 161.528 184.92C160.4 186.076 160.007 188.136 159.995 191.019C159.989 192.296 160.067 193.652 160.198 195.005L160.253 195.535C160.262 195.621 160.272 195.705 160.281 195.788L160.372 196.525C160.385 196.624 160.396 196.702 160.404 196.755C160.52 197.549 161.259 198.098 162.053 197.982C162.847 197.865 163.396 197.127 163.279 196.333L163.243 196.066L163.222 195.901C163.177 195.547 163.133 195.151 163.091 194.723C162.968 193.461 162.896 192.198 162.901 191.031C162.907 189.6 163.042 188.436 163.252 187.701L163.288 187.585L163.327 187.618C163.686 187.928 164.13 188.379 164.649 188.963L165.085 189.463C165.988 190.513 166.834 191.592 168.685 194.045L171.006 197.129C175.283 202.783 177.22 204.963 179.004 205.573C179.764 205.832 180.59 205.427 180.849 204.668C181.1 203.935 180.732 203.141 180.024 202.852L179.944 202.822C178.987 202.495 176.926 200.136 173.177 195.18L171.13 192.46C169.055 189.708 168.184 188.599 167.157 187.415L166.966 187.196C166.076 186.181 165.334 185.452 164.683 184.989Z" fill="var(--color-typo-primary)"/>
<path fill-rule="evenodd" clip-rule="evenodd" d="M155.932 198.045C155.932 198.045 153.268 191.797 156.804 188.793C160.292 185.79 168.963 202.89 172.741 205.069" fill="var(--color-bg-default)"/>
<path fill-rule="evenodd" clip-rule="evenodd" d="M161.333 188.798C159.323 186.958 157.45 186.319 155.863 187.686C154.436 188.898 153.706 190.568 153.548 192.514C153.43 193.979 153.637 195.501 154.05 196.997C154.249 197.718 154.451 198.277 154.595 198.615C154.91 199.354 155.763 199.697 156.502 199.382C157.214 199.079 157.558 198.274 157.3 197.555L157.194 197.286C157.18 197.248 157.165 197.207 157.148 197.161C157.048 196.882 156.946 196.567 156.851 196.223C156.521 195.028 156.358 193.827 156.445 192.749C156.54 191.574 156.924 190.654 157.646 189.988L157.763 189.886C157.774 189.881 157.794 189.891 157.916 189.933C158.269 190.053 158.769 190.391 159.371 190.942C160.496 191.971 161.816 193.569 163.584 195.973L164.271 196.916L166.714 200.312C169.911 204.731 170.651 205.542 172.015 206.328C172.71 206.729 173.599 206.491 174 205.796C174.401 205.1 174.162 204.212 173.467 203.811L173.398 203.769C172.493 203.219 171.565 202.074 168.292 197.53L166.907 195.602C166.713 195.333 166.533 195.083 166.359 194.844L166.102 194.492C164.139 191.809 162.677 190.027 161.333 188.798Z" fill="var(--color-typo-primary)"/>
<path fill-rule="evenodd" clip-rule="evenodd" d="M154.333 205.215C154.333 205.215 149.877 194.025 152.977 191.651C156.077 189.278 161.164 203.81 167.219 207.152" fill="var(--color-bg-default)"/>
<path fill-rule="evenodd" clip-rule="evenodd" d="M155.222 190.367C154.173 189.774 153.043 189.77 152.093 190.497C150.259 191.902 150.075 194.66 150.826 198.493C151.048 199.622 151.35 200.812 151.714 202.031C151.951 202.826 152.202 203.595 152.455 204.319L152.582 204.677C152.665 204.909 152.743 205.123 152.816 205.317L152.983 205.753C153.28 206.498 154.125 206.862 154.871 206.565C155.616 206.268 155.98 205.423 155.683 204.677L155.586 204.426L155.431 204.01C155.395 203.911 155.357 203.806 155.318 203.698C155.039 202.918 154.76 202.075 154.499 201.201C154.161 200.065 153.881 198.964 153.679 197.934L153.605 197.543C153.182 195.169 153.274 193.495 153.745 192.919L153.773 192.887L153.792 192.897C154.1 193.071 154.527 193.478 155.046 194.112L155.152 194.242L155.332 194.472C155.759 195.025 156.233 195.701 156.819 196.587L157.302 197.325C157.819 198.126 158.926 199.846 159.294 200.407L159.634 200.92C162.267 204.873 164.255 207.177 166.516 208.425C167.219 208.813 168.103 208.557 168.491 207.855C168.879 207.152 168.623 206.268 167.921 205.88C166.197 204.929 164.422 202.866 162.038 199.287L161.51 198.483C160.931 197.592 159.769 195.785 159.51 195.389L159.22 194.949C158.516 193.886 157.955 193.094 157.421 192.427C156.642 191.453 155.943 190.774 155.222 190.367Z" fill="var(--color-typo-primary)"/>
<path fill-rule="evenodd" clip-rule="evenodd" d="M178.651 203.81V203.81C179.135 201.388 178.893 198.869 177.924 196.641C176.81 194.025 175.502 190.537 175.405 188.26C175.212 184.337 181.606 186.177 181.896 188.6C182.187 191.022 183.398 190.876 186.208 193.395C189.017 195.866 188.484 205.748 188.484 205.748C188.484 205.748 190.955 210.834 183.011 216.889C175.066 222.944 166.541 218.245 166.541 218.245C166.541 218.245 151.136 212.578 151.136 201.485C151.136 190.392 155.205 206.571 162.908 211.125" fill="var(--color-bg-default)"/>
<path fill-rule="evenodd" clip-rule="evenodd" d="M178.712 184.618C176.031 184.165 173.813 185.477 173.953 188.323C174.041 190.388 174.924 193.223 176.343 196.631L176.592 197.221C177.435 199.16 177.656 201.375 177.226 203.526C177.069 204.313 177.579 205.078 178.366 205.236C179.153 205.393 179.919 204.883 180.076 204.096C180.604 201.458 180.357 198.733 179.363 196.313L179.046 195.562C177.747 192.444 176.927 189.827 176.857 188.189C176.823 187.507 177.165 187.304 178.227 187.484C179.385 187.68 180.41 188.406 180.454 188.773C180.624 190.19 181.086 191.104 182.011 191.934L182.124 192.033C182.224 192.119 184.36 193.691 185.248 194.487C185.965 195.117 186.545 196.93 186.84 199.463C187.044 201.219 187.099 203.086 187.063 204.771L187.052 205.188C187.045 205.423 187.038 205.588 187.033 205.67C187.022 205.881 187.057 206.091 187.135 206.287L187.177 206.383C187.183 206.395 187.218 206.487 187.261 206.65C187.482 207.49 187.465 208.554 187.02 209.809C186.349 211.702 184.802 213.697 182.13 215.734C181.675 216.081 181.212 216.393 180.742 216.673C176.96 218.922 172.911 218.987 169.104 217.735C168.651 217.586 168.24 217.429 167.875 217.271L167.696 217.192C167.491 217.1 167.347 217.029 167.271 216.989L167.242 216.973C167.199 216.95 167.155 216.928 167.111 216.909L166.898 216.827C166.8 216.788 166.689 216.744 166.567 216.693L166.441 216.641C165.939 216.43 165.377 216.177 164.771 215.881C163.038 215.035 161.304 214.023 159.694 212.851C155.218 209.593 152.59 205.786 152.59 201.486L152.59 201.26L152.597 200.761L153.458 202.123C154.306 203.472 155.206 204.916 155.68 205.626L155.787 205.786C157.877 208.841 159.904 211.038 162.168 212.376C162.859 212.785 163.75 212.556 164.159 211.865C164.567 211.174 164.338 210.283 163.647 209.874C161.828 208.799 160.057 206.88 158.186 204.145L158.092 204.005C157.223 202.694 154.342 197.972 153.719 197.249C153.288 196.749 152.881 196.422 152.345 196.28C151.43 196.037 150.629 196.496 150.219 197.288C149.819 198.06 149.683 199.325 149.683 201.486C149.683 206.891 152.831 211.45 157.983 215.201C159.743 216.481 161.62 217.578 163.496 218.493C164.154 218.814 164.766 219.09 165.317 219.321L165.71 219.483L165.937 219.571L166.019 219.614L166.225 219.717C166.666 219.93 167.267 220.181 168.007 220.433L168.195 220.496C172.731 221.988 177.623 221.909 182.227 219.171C182.793 218.834 183.348 218.46 183.892 218.046C186.992 215.683 188.889 213.236 189.76 210.781C190.409 208.948 190.435 207.291 190.071 205.91C190.037 205.778 190 205.657 189.964 205.549L189.949 205.504L189.957 205.277C190.016 203.357 189.967 201.194 189.727 199.127C189.363 195.995 188.639 193.686 187.286 192.412L187.178 192.314C186.168 191.409 183.996 189.81 184.015 189.826C183.57 189.445 183.43 189.18 183.339 188.427C183.108 186.503 180.995 185.005 178.712 184.618Z" fill="var(--color-typo-primary)"/>
<path fill-rule="evenodd" clip-rule="evenodd" d="M81.8657 207.443C81.9141 207.249 92.5712 194.8 92.9103 195.091C93.2493 195.381 107.83 201.872 108.169 202.405C108.508 202.89 109.041 205.845 107.588 208.557C106.135 211.27 104.488 217.519 97.8997 218.003C91.3117 218.488 81.8657 207.443 81.8657 207.443Z" fill="var(--color-bg-default)"/>
<path fill-rule="evenodd" clip-rule="evenodd" d="M101.29 197.949C101.29 197.949 102.55 189.375 100.564 187.34C98.5776 185.306 87.4846 204.294 83.6578 205.602" fill="var(--color-bg-default)"/>
<path fill-rule="evenodd" clip-rule="evenodd" d="M101.604 186.325C100.68 185.378 99.5511 185.609 98.4491 186.394C97.8368 186.83 97.1431 187.501 96.3215 188.425L95.9752 188.82C94.9898 189.955 94.1489 191.022 92.2508 193.536L89.9551 196.585C86.2609 201.468 84.2055 203.831 83.2305 204.212L83.1882 204.227C82.4287 204.487 82.0235 205.313 82.283 206.072C82.5426 206.832 83.3687 207.237 84.1282 206.977L84.2606 206.929C86.0093 206.258 87.9551 204.048 92.1258 198.534L95.2422 194.4C96.6322 192.57 97.3585 191.661 98.1677 190.728L98.3514 190.517C98.8835 189.91 99.341 189.436 99.7139 189.103L99.8452 188.989L99.8479 188.999C100.067 189.695 100.212 190.833 100.229 192.25L100.231 192.436C100.236 193.603 100.164 194.866 100.041 196.127C100.016 196.384 99.9901 196.63 99.9636 196.861L99.8893 197.471C99.8732 197.594 99.8607 197.685 99.8529 197.737C99.7363 198.532 100.285 199.27 101.079 199.386C101.874 199.503 102.612 198.954 102.729 198.16L102.794 197.668L102.851 197.192C102.879 196.945 102.907 196.683 102.934 196.409C103.066 195.057 103.143 193.701 103.137 192.423C103.125 189.541 102.732 187.481 101.604 186.325Z" fill="var(--color-typo-primary)"/>
<path fill-rule="evenodd" clip-rule="evenodd" d="M107.2 199.45C107.2 199.45 109.865 193.201 106.329 190.198C102.841 187.195 94.1698 204.294 90.3914 206.474" fill="var(--color-bg-default)"/>
<path fill-rule="evenodd" clip-rule="evenodd" d="M107.277 189.097C105.683 187.724 103.809 188.363 101.799 190.202C100.54 191.355 99.1754 192.993 97.3923 195.404L96.7735 196.249C96.5997 196.488 96.419 196.738 96.2253 197.007L94.2394 199.768C91.3723 203.729 90.5353 204.714 89.6653 205.215C88.9701 205.617 88.7317 206.505 89.1328 207.2C89.5339 207.896 90.4226 208.134 91.1178 207.733L91.3609 207.588C92.6914 206.766 93.5655 205.688 97.293 200.504L98.8613 198.321C99.0408 198.072 99.2102 197.839 99.3757 197.613L99.7179 197.148C101.401 194.871 102.673 193.342 103.761 192.347C104.363 191.796 104.864 191.458 105.217 191.338L105.344 191.295C105.359 191.29 105.367 191.291 105.373 191.294L105.388 191.306C106.172 191.971 106.587 192.923 106.687 194.154C106.774 195.232 106.611 196.433 106.281 197.628C106.205 197.903 106.125 198.16 106.045 198.394L105.938 198.69L105.864 198.88C105.549 199.619 105.892 200.472 106.631 200.787C107.369 201.102 108.223 200.759 108.537 200.02C108.682 199.682 108.883 199.123 109.083 198.402C109.496 196.906 109.703 195.383 109.584 193.919C109.426 191.973 108.697 190.303 107.277 189.097Z" fill="var(--color-typo-primary)"/>
<path fill-rule="evenodd" clip-rule="evenodd" d="M108.75 206.668C108.75 206.668 113.207 195.478 110.107 193.105C107.007 190.731 101.92 205.263 95.8651 208.606" fill="var(--color-bg-default)"/>
<path fill-rule="evenodd" clip-rule="evenodd" d="M110.99 191.951C110.041 191.224 108.911 191.227 107.861 191.82C107.141 192.228 106.442 192.906 105.662 193.88L105.447 194.154C104.94 194.81 104.396 195.592 103.72 196.619L101.36 200.264L101.046 200.74C98.6618 204.319 96.8863 206.382 95.163 207.333C94.4604 207.721 94.2052 208.605 94.593 209.308C94.9809 210.011 95.8649 210.266 96.5676 209.878C98.8763 208.604 100.902 206.228 103.619 202.119L104.3 201.074C104.917 200.121 105.792 198.761 106.006 198.434L106.264 198.041C106.935 197.027 107.457 196.289 107.932 195.696C108.464 195.03 108.905 194.593 109.228 194.388L109.311 194.34L109.339 194.372C109.823 194.964 109.907 196.718 109.441 199.2L109.405 199.387C109.203 200.417 108.923 201.519 108.584 202.655C108.368 203.383 108.137 204.09 107.905 204.756L107.766 205.151C107.707 205.314 107.651 205.467 107.599 205.609L107.401 206.13C107.104 206.876 107.467 207.721 108.213 208.018C108.959 208.315 109.804 207.951 110.101 207.206L110.214 206.911C110.284 206.728 110.36 206.524 110.441 206.301L110.502 206.131C110.798 205.304 111.094 204.412 111.37 203.485C111.733 202.265 112.036 201.076 112.257 199.946C113.009 196.113 112.824 193.355 110.99 191.951Z" fill="var(--color-typo-primary)"/>
<path fill-rule="evenodd" clip-rule="evenodd" d="M84.4328 205.215V205.215C83.9483 202.793 84.1906 200.274 85.1594 198.046C86.2735 195.43 87.5814 191.942 87.6783 189.665C87.8721 185.741 81.4779 187.582 81.1872 190.004C80.8966 192.426 79.6855 192.281 76.876 194.8C74.0664 197.319 74.5992 207.152 74.5992 207.152C74.5992 207.152 72.1287 212.239 80.0731 218.294C88.0174 224.349 96.543 219.65 96.543 219.65C96.543 219.65 111.947 213.983 111.947 202.89C111.947 191.797 107.878 207.976 100.176 212.529" fill="var(--color-bg-default)"/>
<path fill-rule="evenodd" clip-rule="evenodd" d="M89.1302 189.738C89.2712 186.882 87.0532 185.569 84.3724 186.023C82.0887 186.409 79.9756 187.908 79.7447 189.832C79.6593 190.543 79.5295 190.819 79.1408 191.168L79.0694 191.23C79.0879 191.215 76.9159 192.813 75.9062 193.719C74.4869 194.991 73.7363 197.329 73.3614 200.516C73.1349 202.442 73.0758 204.45 73.1159 206.269L73.1299 206.778L73.1348 206.91L73.1196 206.954C73.0957 207.026 73.0716 207.103 73.0479 207.186L73.0126 207.315C72.6491 208.696 72.6749 210.353 73.3245 212.185C74.1951 214.641 76.0923 217.087 79.1925 219.45C79.7357 219.864 80.2907 220.239 80.8568 220.576C85.4612 223.313 90.3527 223.393 94.8887 221.9C95.8436 221.586 96.5828 221.267 97.0655 221.019L97.1479 220.976L97.4617 220.852L97.7673 220.726C98.3185 220.495 98.9302 220.219 99.5876 219.898C101.464 218.982 103.341 217.886 105.101 216.605C110.253 212.855 113.401 208.296 113.401 202.89C113.401 200.73 113.265 199.465 112.865 198.693C112.455 197.901 111.654 197.442 110.74 197.685C110.203 197.827 109.796 198.154 109.365 198.654C108.717 199.406 105.627 204.483 104.898 205.55C103.027 208.285 101.257 210.203 99.4369 211.279C98.746 211.688 98.5171 212.579 98.9255 213.27C99.334 213.961 100.225 214.19 100.916 213.781C103.109 212.485 105.08 210.383 107.101 207.475L107.297 207.191C107.817 206.431 109.125 204.318 110.168 202.669L110.488 202.166L110.489 202.238C110.491 202.391 110.493 202.552 110.494 202.72L110.494 202.89C110.494 207.191 107.866 210.997 103.39 214.256C101.78 215.428 100.047 216.44 98.313 217.286C97.7934 217.54 97.3065 217.762 96.862 217.953L96.6433 218.046C96.5131 218.1 96.3945 218.149 96.2882 218.191L96.0416 218.287C95.9958 218.304 95.9508 218.323 95.9069 218.345L95.7315 218.436C95.6498 218.476 95.5346 218.531 95.388 218.597C94.9802 218.781 94.5081 218.966 93.9804 219.139C90.1731 220.392 86.1246 220.326 82.3421 218.078C81.8719 217.798 81.4092 217.486 80.9544 217.139C78.2822 215.102 76.7349 213.107 76.0639 211.214C75.6189 209.959 75.6023 208.895 75.8233 208.055L75.8537 207.946C75.882 207.851 75.9026 207.797 75.9068 207.788C76.0145 207.566 76.0641 207.321 76.0507 207.075L76.0373 206.757C76.0356 206.708 76.0338 206.654 76.032 206.595C75.9768 204.801 76.0236 202.764 76.248 200.856C76.5442 198.338 77.1245 196.53 77.8464 195.883L77.991 195.756C78.938 194.938 80.8653 193.519 80.9597 193.438C81.9606 192.581 82.4537 191.651 82.6305 190.178C82.6746 189.811 83.6987 189.085 84.8572 188.889C85.919 188.709 86.2609 188.911 86.2268 189.604C86.1575 191.232 85.3371 193.849 84.0413 196.958L83.827 197.467C82.7449 199.956 82.463 202.775 83.0081 205.501C83.1655 206.288 83.9311 206.798 84.7181 206.641C85.5052 206.483 86.0156 205.718 85.8582 204.931C85.4434 202.857 85.6346 200.723 86.4084 198.826L86.7445 198.028C88.1596 194.628 89.0427 191.793 89.1302 189.738Z" fill="var(--color-typo-primary)"/>
</svg>
